<svg xmlns="http://www.w3.org/2000/svg" xmlns:xlink="http://www.w3.org/1999/xlink" viewBox="0 0 800 400"><defs><style>.cls-1{isolation:isolate;}.cls-10,.cls-100,.cls-101,.cls-105,.cls-11,.cls-12,.cls-126,.cls-127,.cls-128,.cls-129,.cls-130,.cls-131,.cls-132,.cls-133,.cls-134,.cls-135,.cls-136,.cls-137,.cls-139,.cls-141,.cls-142,.cls-143,.cls-144,.cls-145,.cls-146,.cls-147,.cls-148,.cls-149,.cls-15,.cls-150,.cls-151,.cls-152,.cls-154,.cls-157,.cls-159,.cls-16,.cls-161,.cls-163,.cls-165,.cls-166,.cls-17,.cls-18,.cls-19,.cls-2,.cls-20,.cls-21,.cls-22,.cls-23,.cls-24,.cls-3,.cls-4,.cls-45,.cls-49,.cls-5,.cls-50,.cls-51,.cls-52,.cls-53,.cls-55,.cls-56,.cls-57,.cls-60,.cls-61,.cls-64,.cls-65,.cls-66,.cls-67,.cls-68,.cls-69,.cls-72,.cls-73,.cls-74,.cls-75,.cls-76,.cls-77,.cls-78,.cls-79,.cls-80,.cls-81,.cls-87,.cls-88,.cls-89,.cls-9,.cls-91,.cls-92,.cls-93,.cls-94,.cls-95,.cls-96,.cls-97,.cls-98,.cls-99{fill-rule:evenodd;}.cls-2{fill:url(#Áåçûìÿííûé_ãðàäèåíò_75);}.cls-3{fill:url(#Áåçûìÿííûé_ãðàäèåíò_262);}.cls-4{fill:url(#Áåçûìÿííûé_ãðàäèåíò_20);}.cls-104,.cls-112,.cls-14,.cls-5,.cls-62{opacity:0.5;}.cls-5{fill:url(#Áåçûìÿííûé_ãðàäèåíò_20-2);}.cls-102,.cls-103,.cls-104,.cls-14,.cls-46,.cls-47,.cls-48,.cls-6,.cls-62,.cls-70,.cls-71,.cls-82,.cls-83,.cls-84,.cls-85,.cls-87{mix-blend-mode:soft-light;}.cls-7{fill:#edeef7;}.cls-105,.cls-126,.cls-140,.cls-22,.cls-59,.cls-63,.cls-8,.cls-86,.cls-90{mix-blend-mode:multiply;}.cls-8{fill:url(#Áåçûìÿííûé_ãðàäèåíò_52);}.cls-127,.cls-139,.cls-49,.cls-50,.cls-60,.cls-61,.cls-88,.cls-89,.cls-9{mix-blend-mode:screen;}.cls-9{fill:url(#Áåçûìÿííûé_ãðàäèåíò_22);}.cls-10{fill:url(#Áåçûìÿííûé_ãðàäèåíò_18);}.cls-11{fill:url(#Áåçûìÿííûé_ãðàäèåíò_262-2);}.cls-12{fill:url(#Áåçûìÿííûé_ãðàäèåíò_10);}.cls-13{fill:url(#Áåçûìÿííûé_ãðàäèåíò_11);}.cls-14{fill:url(#Áåçûìÿííûé_ãðàäèåíò_215);}.cls-15{fill:url(#Áåçûìÿííûé_ãðàäèåíò_350);}.cls-16{fill:url(#Áåçûìÿííûé_ãðàäèåíò_33);}.cls-17{fill:url(#Áåçûìÿííûé_ãðàäèåíò_273);}.cls-18{fill:url(#Áåçûìÿííûé_ãðàäèåíò_313);}.cls-19{fill:url(#Áåçûìÿííûé_ãðàäèåíò_262-3);}.cls-20{fill:url(#Áåçûìÿííûé_ãðàäèåíò_262-4);}.cls-21{fill:url(#Áåçûìÿííûé_ãðàäèåíò_264);}.cls-22{fill:url(#Áåçûìÿííûé_ãðàäèåíò_12);}.cls-23{fill:url(#Áåçûìÿííûé_ãðàäèåíò_262-5);}.cls-24{fill:url(#Áåçûìÿííûé_ãðàäèåíò_264-2);}.cls-25{fill:url(#Áåçûìÿííûé_ãðàäèåíò_347);}.cls-26{fill:url(#Áåçûìÿííûé_ãðàäèåíò_347-2);}.cls-27{fill:url(#Áåçûìÿííûé_ãðàäèåíò_347-3);}.cls-28{fill:url(#Áåçûìÿííûé_ãðàäèåíò_347-4);}.cls-29{fill:url(#Áåçûìÿííûé_ãðàäèåíò_347-5);}.cls-30{fill:url(#Áåçûìÿííûé_ãðàäèåíò_347-6);}.cls-31{fill:url(#Áåçûìÿííûé_ãðàäèåíò_347-7);}.cls-32{fill:url(#Áåçûìÿííûé_ãðàäèåíò_347-8);}.cls-33{fill:url(#Áåçûìÿííûé_ãðàäèåíò_347-9);}.cls-34{fill:url(#Áåçûìÿííûé_ãðàäèåíò_347-10);}.cls-35{fill:url(#Áåçûìÿííûé_ãðàäèåíò_347-11);}.cls-36{fill:url(#Áåçûìÿííûé_ãðàäèåíò_347-12);}.cls-37{fill:url(#Áåçûìÿííûé_ãðàäèåíò_347-13);}.cls-38{fill:url(#Áåçûìÿííûé_ãðàäèåíò_347-14);}.cls-39{fill:url(#Áåçûìÿííûé_ãðàäèåíò_347-15);}.cls-40{fill:url(#Áåçûìÿííûé_ãðàäèåíò_347-16);}.cls-41{fill:url(#Áåçûìÿííûé_ãðàäèåíò_347-17);}.cls-42{fill:url(#Áåçûìÿííûé_ãðàäèåíò_347-18);}.cls-43{fill:url(#Áåçûìÿííûé_ãðàäèåíò_347-19);}.cls-44{fill:#ffb893;}.cls-45{fill:url(#Áåçûìÿííûé_ãðàäèåíò_41);}.cls-46{fill:url(#Áåçûìÿííûé_ãðàäèåíò_215-2);}.cls-47{fill:url(#Áåçûìÿííûé_ãðàäèåíò_215-3);}.cls-48{fill:url(#Áåçûìÿííûé_ãðàäèåíò_215-4);}.cls-49{fill:url(#Áåçûìÿííûé_ãðàäèåíò_259);}.cls-50{fill:url(#Áåçûìÿííûé_ãðàäèåíò_31);}.cls-51{fill:url(#Áåçûìÿííûé_ãðàäèåíò_54);}.cls-52{fill:url(#Áåçûìÿííûé_ãðàäèåíò_262-6);}.cls-53{fill:url(#Áåçûìÿííûé_ãðàäèåíò_10-2);}.cls-54{fill:url(#Áåçûìÿííûé_ãðàäèåíò_10-3);}.cls-55{fill:url(#Áåçûìÿííûé_ãðàäèåíò_56);}.cls-56{fill:url(#Áåçûìÿííûé_ãðàäèåíò_262-7);}.cls-57{fill:url(#Áåçûìÿííûé_ãðàäèåíò_10-4);}.cls-58{fill:url(#Áåçûìÿííûé_ãðàäèåíò_11-2);}.cls-59{fill:url(#Áåçûìÿííûé_ãðàäèåíò_52-2);}.cls-60{fill:url(#Áåçûìÿííûé_ãðàäèåíò_259-2);}.cls-61{fill:url(#Áåçûìÿííûé_ãðàäèåíò_259-3);}.cls-62{fill:url(#Áåçûìÿííûé_ãðàäèåíò_215-5);}.cls-63{fill:#7cc4fb;}.cls-64{fill:url(#Áåçûìÿííûé_ãðàäèåíò_185);}.cls-65{fill:url(#Áåçûìÿííûé_ãðàäèåíò_97);}.cls-66{fill:url(#Áåçûìÿííûé_ãðàäèåíò_207);}.cls-67{fill:url(#Áåçûìÿííûé_ãðàäèåíò_187);}.cls-68{fill:url(#Áåçûìÿííûé_ãðàäèåíò_97-2);}.cls-69{fill:url(#Áåçûìÿííûé_ãðàäèåíò_97-3);}.cls-70,.cls-71{opacity:0.8;}.cls-70{fill:url(#Áåçûìÿííûé_ãðàäèåíò_189);}.cls-71{fill:url(#Áåçûìÿííûé_ãðàäèåíò_107);}.cls-72{fill:url(#Áåçûìÿííûé_ãðàäèåíò_33-2);}.cls-73{fill:url(#Áåçûìÿííûé_ãðàäèåíò_350-2);}.cls-74{fill:url(#Áåçûìÿííûé_ãðàäèåíò_33-3);}.cls-75{fill:url(#Áåçûìÿííûé_ãðàäèåíò_262-8);}.cls-76{fill:url(#Áåçûìÿííûé_ãðàäèåíò_54-2);}.cls-77{fill:url(#Áåçûìÿííûé_ãðàäèåíò_350-3);}.cls-78{fill:url(#Áåçûìÿííûé_ãðàäèåíò_33-4);}.cls-79{fill:url(#Áåçûìÿííûé_ãðàäèåíò_155);}.cls-80{fill:url(#Áåçûìÿííûé_ãðàäèåíò_155-2);}.cls-81{fill:url(#Áåçûìÿííûé_ãðàäèåíò_155-3);}.cls-82{fill:url(#Áåçûìÿííûé_ãðàäèåíò_215-6);}.cls-83{fill:url(#Áåçûìÿííûé_ãðàäèåíò_215-7);}.cls-84{fill:url(#Áåçûìÿííûé_ãðàäèåíò_215-8);}.cls-85{fill:url(#Áåçûìÿííûé_ãðàäèåíò_215-9);}.cls-86{fill:url(#Áåçûìÿííûé_ãðàäèåíò_52-3);}.cls-87{fill:#f1b0b4;}.cls-88{fill:url(#Áåçûìÿííûé_ãðàäèåíò_259-4);}.cls-89{fill:url(#Áåçûìÿííûé_ãðàäèåíò_359);}.cls-90{fill:#84709f;}.cls-91{fill:url(#Áåçûìÿííûé_ãðàäèåíò_350-4);}.cls-92{fill:url(#Áåçûìÿííûé_ãðàäèåíò_33-5);}.cls-93{fill:url(#Áåçûìÿííûé_ãðàäèåíò_350-5);}.cls-94{fill:url(#Áåçûìÿííûé_ãðàäèåíò_33-6);}.cls-95{fill:url(#Áåçûìÿííûé_ãðàäèåíò_54-3);}.cls-96{fill:url(#Áåçûìÿííûé_ãðàäèåíò_13);}.cls-97{fill:url(#Áåçûìÿííûé_ãðàäèåíò_350-6);}.cls-98{fill:url(#Áåçûìÿííûé_ãðàäèåíò_33-7);}.cls-99{fill:url(#Áåçûìÿííûé_ãðàäèåíò_262-9);}.cls-100{fill:url(#Áåçûìÿííûé_ãðàäèåíò_350-7);}.cls-101{fill:url(#Áåçûìÿííûé_ãðàäèåíò_33-8);}.cls-102{fill:url(#Áåçûìÿííûé_ãðàäèåíò_215-10);}.cls-103{fill:url(#Áåçûìÿííûé_ãðàäèåíò_215-11);}.cls-104{fill:url(#Áåçûìÿííûé_ãðàäèåíò_215-12);}.cls-105{fill:#896165;opacity:0.2;}.cls-106{fill:url(#Áåçûìÿííûé_ãðàäèåíò_33-9);}.cls-107{fill:url(#Áåçûìÿííûé_ãðàäèåíò_33-10);}.cls-108{fill:url(#Áåçûìÿííûé_ãðàäèåíò_33-11);}.cls-109{fill:url(#Áåçûìÿííûé_ãðàäèåíò_33-12);}.cls-110{fill:url(#Áåçûìÿííûé_ãðàäèåíò_33-13);}.cls-111{fill:url(#Áåçûìÿííûé_ãðàäèåíò_33-14);}.cls-113{fill:url(#Áåçûìÿííûé_ãðàäèåíò_33-15);}.cls-114{fill:url(#Áåçûìÿííûé_ãðàäèåíò_33-16);}.cls-115{fill:url(#Áåçûìÿííûé_ãðàäèåíò_33-17);}.cls-116{fill:url(#Áåçûìÿííûé_ãðàäèåíò_33-18);}.cls-117{fill:url(#Áåçûìÿííûé_ãðàäèåíò_33-19);}.cls-118{fill:url(#Áåçûìÿííûé_ãðàäèåíò_33-20);}.cls-119{fill:url(#Áåçûìÿííûé_ãðàäèåíò_33-21);}.cls-120{fill:url(#Áåçûìÿííûé_ãðàäèåíò_33-22);}.cls-121{fill:url(#Áåçûìÿííûé_ãðàäèåíò_33-23);}.cls-122{fill:url(#Áåçûìÿííûé_ãðàäèåíò_33-24);}.cls-123{fill:url(#Áåçûìÿííûé_ãðàäèåíò_33-25);}.cls-124{fill:url(#Áåçûìÿííûé_ãðàäèåíò_33-26);}.cls-125{fill:url(#Áåçûìÿííûé_ãðàäèåíò_33-27);}.cls-126{fill:#efacd2;}.cls-127{fill:url(#Áåçûìÿííûé_ãðàäèåíò_259-5);}.cls-128{fill:url(#Áåçûìÿííûé_ãðàäèåíò_75-2);}.cls-129{fill:url(#Áåçûìÿííûé_ãðàäèåíò_20-3);}.cls-130{fill:url(#Áåçûìÿííûé_ãðàäèåíò_264-3);}.cls-131{fill:url(#Áåçûìÿííûé_ãðàäèåíò_262-10);}.cls-132{fill:url(#Áåçûìÿííûé_ãðàäèåíò_75-3);}.cls-133{fill:url(#Áåçûìÿííûé_ãðàäèåíò_20-4);}.cls-134{fill:url(#Áåçûìÿííûé_ãðàäèåíò_15);}.cls-135{fill:url(#Áåçûìÿííûé_ãðàäèåíò_14);}.cls-136{fill:url(#Áåçûìÿííûé_ãðàäèåíò_75-4);}.cls-137{fill:url(#Áåçûìÿííûé_ãðàäèåíò_20-5);}.cls-138{fill:#60599c;}.cls-139{fill:url(#Áåçûìÿííûé_ãðàäèåíò_16);}.cls-140{fill:url(#Áåçûìÿííûé_ãðàäèåíò_52-4);}.cls-141{fill:url(#Áåçûìÿííûé_ãðàäèåíò_75-5);}.cls-142{fill:url(#Áåçûìÿííûé_ãðàäèåíò_20-6);}.cls-143{fill:url(#Áåçûìÿííûé_ãðàäèåíò_25);}.cls-144{fill:url(#Áåçûìÿííûé_ãðàäèåíò_25-2);}.cls-145{fill:url(#Áåçûìÿííûé_ãðàäèåíò_25-3);}.cls-146{fill:url(#Áåçûìÿííûé_ãðàäèåíò_25-4);}.cls-147{fill:url(#Áåçûìÿííûé_ãðàäèåíò_25-5);}.cls-148{fill:url(#Áåçûìÿííûé_ãðàäèåíò_262-11);}.cls-149{fill:url(#Áåçûìÿííûé_ãðàäèåíò_262-12);}.cls-150{fill:url(#Áåçûìÿííûé_ãðàäèåíò_262-13);}.cls-151{fill:url(#Áåçûìÿííûé_ãðàäèåíò_262-14);}.cls-152{fill:url(#Áåçûìÿííûé_ãðàäèåíò_262-15);}.cls-153{fill:#6a40a9;}.cls-154{fill:url(#Áåçûìÿííûé_ãðàäèåíò_43);}.cls-155{fill:url(#Áåçûìÿííûé_ãðàäèåíò_42);}.cls-156,.cls-165{fill:#fff;}.cls-157{fill:url(#Áåçûìÿííûé_ãðàäèåíò_43-2);}.cls-158{fill:url(#Áåçûìÿííûé_ãðàäèåíò_42-2);}.cls-159{fill:url(#Áåçûìÿííûé_ãðàäèåíò_43-3);}.cls-160{fill:url(#Áåçûìÿííûé_ãðàäèåíò_42-3);}.cls-161{fill:url(#Áåçûìÿííûé_ãðàäèåíò_43-4);}.cls-162{fill:url(#Áåçûìÿííûé_ãðàäèåíò_42-4);}.cls-163{fill:url(#Áåçûìÿííûé_ãðàäèåíò_43-5);}.cls-164{fill:url(#Áåçûìÿííûé_ãðàäèåíò_42-5);}.cls-166{fill:url(#Áåçûìÿííûé_ãðàäèåíò_43-6);}.cls-167{fill:url(#Áåçûìÿííûé_ãðàäèåíò_42-6);}</style><linearGradient id="Áåçûìÿííûé_ãðàäèåíò_75" x1="569.42" y1="377.92" x2="569.42" y2="69.5" gradientUnits="userSpaceOnUse"><stop offset="0" stop-color="#dbe5e7"/><stop offset="1" stop-color="#eef2f8"/></linearGradient><radialGradient id="Áåçûìÿííûé_ãðàäèåíò_262" cx="566.92" cy="224.79" r="104.62" gradientUnits="userSpaceOnUse"><stop offset="0" stop-color="#33b6a6"/><stop offset="1" stop-color="#00638b"/></radialGradient><linearGradient id="Áåçûìÿííûé_ãðàäèåíò_20" x1="585.67" y1="377.45" x2="580.17" y2="69.98" gradientUnits="userSpaceOnUse"><stop offset="0" stop-color="#8e98d0"/><stop offset="1" stop-color="#acb9d4"/></linearGradient><linearGradient id="Áåçûìÿííûé_ãðàäèåíò_20-2" x1="543.6" y1="377.43" x2="543.6" y2="114.57" xlink:href="#Áåçûìÿííûé_ãðàäèåíò_20"/><linearGradient id="Áåçûìÿííûé_ãðàäèåíò_52" x1="565.76" y1="226.9" x2="606.97" y2="226.9" gradientUnits="userSpaceOnUse"><stop offset="0" stop-color="#dee1f1"/><stop offset="1" stop-color="#7286e2"/></linearGradient><linearGradient id="Áåçûìÿííûé_ãðàäèåíò_22" x1="570.76" y1="377.43" x2="570.76" y2="131.88" gradientUnits="userSpaceOnUse"><stop offset="0" stop-color="#7e0298"/><stop offset="0.19" stop-color="#7b0295"/><stop offset="0.35" stop-color="#73028a"/><stop offset="0.5" stop-color="#640279"/><stop offset="0.65" stop-color="#500160"/><stop offset="0.79" stop-color="#350140"/><stop offset="0.92" stop-color="#15001a"/><stop offset="1"/></linearGradient><radialGradient id="Áåçûìÿííûé_ãðàäèåíò_18" cx="653.32" cy="224.49" r="75.9" gradientTransform="translate(0 -83.75) scale(1 1.23)" gradientUnits="userSpaceOnUse"><stop offset="0" stop-color="#e5feae"/><stop offset="0.21" stop-color="#bbe6ad"/><stop offset="1" stop-color="#1888a9"/></radialGradient><radialGradient id="Áåçûìÿííûé_ãðàäèåíò_262-2" cx="640.34" cy="308.38" r="54.31" gradientTransform="translate(0 -83.75) scale(1 1.23)" xlink:href="#Áåçûìÿííûé_ãðàäèåíò_262"/><linearGradient id="Áåçûìÿííûé_ãðàäèåíò_10" x1="620.15" y1="271.96" x2="690.91" y2="271.96" gradientUnits="userSpaceOnUse"><stop offset="0" stop-color="#c1e5ae"/><stop offset="1" stop-color="#1888a9"/></linearGradient><linearGradient id="Áåçûìÿííûé_ãðàäèåíò_11" x1="634.56" y1="271.91" x2="691.31" y2="271.91" gradientUnits="userSpaceOnUse"><stop offset="0" stop-color="#1888a9"/><stop offset="1" stop-color="#c1e5ae"/></linearGradient><linearGradient id="Áåçûìÿííûé_ãðàäèåíò_215" x1="635.52" y1="251.44" x2="680.24" y2="251.44" gradientUnits="userSpaceOnUse"><stop offset="0" stop-color="#ffc"/><stop offset="1" stop-color="#aed4b3"/></linearGradient><linearGradient id="Áåçûìÿííûé_ãðàäèåíò_350" x1="205.83" y1="369.17" x2="205.83" y2="108.34" gradientTransform="matrix(1, 0.05, -0.05, 1, 8.21, -8.11)" gradientUnits="userSpaceOnUse"><stop offset="0.03" stop-color="#ff9f72"/><stop offset="1" stop-color="#ffd895"/></linearGradient><linearGradient id="Áåçûìÿííûé_ãðàäèåíò_33" x1="234.67" y1="369.17" x2="234.67" y2="108.34" gradientTransform="matrix(1, 0.05, -0.05, 1, 8.21, -8.11)" gradientUnits="userSpaceOnUse"><stop offset="0" stop-color="#d83d39"/><stop offset="1" stop-color="#f97c36"/></linearGradient><linearGradient id="Áåçûìÿííûé_ãðàäèåíò_273" x1="242" y1="242.05" x2="262.46" y2="242.05" gradientTransform="matrix(1, 0.05, -0.05, 1, 8.21, -8.11)" gradientUnits="userSpaceOnUse"><stop offset="0.03" stop-color="#ff9f72"/><stop offset="1" stop-color="#ffb0ac"/></linearGradient><linearGradient id="Áåçûìÿííûé_ãðàäèåíò_313" x1="259.93" y1="369.04" x2="259.93" y2="114.93" gradientTransform="matrix(1, 0.05, -0.05, 1, 8.21, -8.11)" gradientUnits="userSpaceOnUse"><stop offset="0" stop-color="#d8489c"/><stop offset="1" stop-color="#f97c36"/></linearGradient><radialGradient id="Áåçûìÿííûé_ãðàäèåíò_262-3" cx="218.7" cy="247.05" r="84.01" gradientTransform="matrix(1, 0.05, -0.05, 1, 8.21, -8.11)" xlink:href="#Áåçûìÿííûé_ãðàäèåíò_262"/><radialGradient id="Áåçûìÿííûé_ãðàäèåíò_262-4" cx="203.54" cy="170.76" r="110" gradientTransform="matrix(1, 0.05, -0.05, 1, 8.21, -8.11)" xlink:href="#Áåçûìÿííûé_ãðàäèåíò_262"/><linearGradient id="Áåçûìÿííûé_ãðàäèåíò_264" x1="214.5" y1="371.76" x2="214.5" y2="131.07" gradientUnits="userSpaceOnUse"><stop offset="0" stop-color="#1888a9"/><stop offset="1" stop-color="#e5feae"/></linearGradient><radialGradient id="Áåçûìÿííûé_ãðàäèåíò_12" cx="244.15" cy="248.9" r="85.67" gradientTransform="matrix(1, 0.05, -0.05, 1, 8.21, -8.11)" gradientUnits="userSpaceOnUse"><stop offset="0" stop-color="#ffeae7"/><stop offset="1" stop-color="#84a4cc"/></radialGradient><radialGradient id="Áåçûìÿííûé_ãðàäèåíò_262-5" cx="224.32" cy="124.51" r="17.01" gradientTransform="matrix(1, 0.05, -0.05, 1, 8.21, -8.11)" xlink:href="#Áåçûìÿííûé_ãðàäèåíò_262"/><linearGradient id="Áåçûìÿííûé_ãðàäèåíò_264-2" x1="225.22" y1="127.63" x2="225.22" y2="116.61" gradientTransform="matrix(1, 0.05, -0.05, 1, 8.21, -8.11)" xlink:href="#Áåçûìÿííûé_ãðàäèåíò_264"/><linearGradient id="Áåçûìÿííûé_ãðàäèåíò_347" x1="305.38" y1="160.98" x2="244.14" y2="147.25" gradientUnits="userSpaceOnUse"><stop offset="0" stop-color="#ff709a"/><stop offset="0.62" stop-color="#7c57c1"/><stop offset="1" stop-color="#eaffe8"/></linearGradient><linearGradient id="Áåçûìÿííûé_ãðàäèåíò_347-2" x1="302.38" y1="171.12" x2="241.38" y2="157.44" xlink:href="#Áåçûìÿííûé_ãðàäèåíò_347"/><linearGradient id="Áåçûìÿííûé_ãðàäèåíò_347-3" x1="299.61" y1="180.64" x2="238.8" y2="167.01" xlink:href="#Áåçûìÿííûé_ãðàäèåíò_347"/><linearGradient id="Áåçûìÿííûé_ãðàäèåíò_347-4" x1="296.9" y1="189.8" x2="236.33" y2="176.23" xlink:href="#Áåçûìÿííûé_ãðàäèåíò_347"/><linearGradient id="Áåçûìÿííûé_ãðàäèåíò_347-5" x1="294.11" y1="199.68" x2="233.7" y2="186.14" xlink:href="#Áåçûìÿííûé_ãðàäèåíò_347"/><linearGradient id="Áåçûìÿííûé_ãðàäèåíò_347-6" x1="291.42" y1="208.85" x2="231.25" y2="195.37" xlink:href="#Áåçûìÿííûé_ãðàäèåíò_347"/><linearGradient id="Áåçûìÿííûé_ãðàäèåíò_347-7" x1="288.51" y1="218.89" x2="228.59" y2="205.46" xlink:href="#Áåçûìÿííûé_ãðàäèåíò_347"/><linearGradient id="Áåçûìÿííûé_ãðàäèåíò_347-8" x1="285.55" y1="229.12" x2="225.91" y2="215.75" xlink:href="#Áåçûìÿííûé_ãðàäèåíò_347"/><linearGradient id="Áåçûìÿííûé_ãðàäèåíò_347-9" x1="282.51" y1="240.06" x2="223.06" y2="226.73" xlink:href="#Áåçûìÿííûé_ãðàäèåíò_347"/><linearGradient id="Áåçûìÿííûé_ãðàäèåíò_347-10" x1="279.65" y1="250.07" x2="220.47" y2="236.81" xlink:href="#Áåçûìÿííûé_ãðàäèåíò_347"/><linearGradient id="Áåçûìÿííûé_ãðàäèåíò_347-11" x1="276.82" y1="260.09" x2="217.9" y2="246.89" xlink:href="#Áåçûìÿííûé_ãðàäèåíò_347"/><linearGradient id="Áåçûìÿííûé_ãðàäèåíò_347-12" x1="273.5" y1="271.98" x2="214.87" y2="258.84" xlink:href="#Áåçûìÿííûé_ãðàäèåíò_347"/><linearGradient id="Áåçûìÿííûé_ãðàäèåíò_347-13" x1="356.54" y1="279.1" x2="242.06" y2="253.44" gradientTransform="matrix(1, 0.05, -0.05, 1, 8.21, -8.11)" xlink:href="#Áåçûìÿííûé_ãðàäèåíò_347"/><linearGradient id="Áåçûìÿííûé_ãðàäèåíò_347-14" x1="349.28" y1="275.34" x2="234.69" y2="249.66" gradientTransform="matrix(1, 0.05, -0.05, 1, 8.21, -8.11)" xlink:href="#Áåçûìÿííûé_ãðàäèåíò_347"/><linearGradient id="Áåçûìÿííûé_ãðàäèåíò_347-15" x1="346.29" y1="274.34" x2="231.4" y2="248.59" gradientTransform="matrix(1, 0.05, -0.05, 1, 8.21, -8.11)" xlink:href="#Áåçûìÿííûé_ãðàäèåíò_347"/><linearGradient id="Áåçûìÿííûé_ãðàäèåíò_347-16" x1="342.82" y1="272.57" x2="227.93" y2="246.82" gradientTransform="matrix(1, 0.05, -0.05, 1, 8.21, -8.11)" xlink:href="#Áåçûìÿííûé_ãðàäèåíò_347"/><linearGradient id="Áåçûìÿííûé_ãðàäèåíò_347-17" x1="339.67" y1="272.12" x2="223.79" y2="246.14" gradientTransform="matrix(1, 0.05, -0.05, 1, 8.21, -8.11)" xlink:href="#Áåçûìÿííûé_ãðàäèåíò_347"/><linearGradient id="Áåçûìÿííûé_ãðàäèåíò_347-18" x1="336.17" y1="270.53" x2="220.14" y2="244.52" gradientTransform="matrix(1, 0.05, -0.05, 1, 8.21, -8.11)" xlink:href="#Áåçûìÿííûé_ãðàäèåíò_347"/><linearGradient id="Áåçûìÿííûé_ãðàäèåíò_347-19" x1="337.75" y1="270.11" x2="215.83" y2="242.78" gradientTransform="matrix(1, 0.05, -0.05, 1, 8.21, -8.11)" xlink:href="#Áåçûìÿííûé_ãðàäèåíò_347"/><linearGradient id="Áåçûìÿííûé_ãðàäèåíò_41" x1="233.41" y1="135.08" x2="233.41" y2="127.58" gradientTransform="matrix(1, 0.05, -0.05, 1, 8.21, -8.11)" gradientUnits="userSpaceOnUse"><stop offset="0.03" stop-color="#ff9f72"/><stop offset="1" stop-color="#ffc995"/></linearGradient><linearGradient id="Áåçûìÿííûé_ãðàäèåíò_215-2" x1="214.86" y1="175.9" x2="220.48" y2="175.9" gradientTransform="matrix(1, 0.05, -0.05, 1, 8.21, -8.11)" xlink:href="#Áåçûìÿííûé_ãðàäèåíò_215"/><linearGradient id="Áåçûìÿííûé_ãðàäèåíò_215-3" x1="219.98" y1="192.06" x2="229.46" y2="192.06" gradientTransform="matrix(1, 0.05, -0.05, 1, 8.21, -8.11)" xlink:href="#Áåçûìÿííûé_ãðàäèåíò_215"/><linearGradient id="Áåçûìÿííûé_ãðàäèåíò_215-4" x1="220" y1="155.86" x2="229.46" y2="155.86" gradientTransform="matrix(1, 0.05, -0.05, 1, 8.21, -8.11)" xlink:href="#Áåçûìÿííûé_ãðàäèåíò_215"/><linearGradient id="Áåçûìÿííûé_ãðàäèåíò_259" x1="209.66" y1="369.17" x2="209.66" y2="201.66" gradientTransform="matrix(1, 0.05, -0.05, 1, 8.21, -8.11)" gradientUnits="userSpaceOnUse"><stop offset="0" stop-color="#7e0298"/><stop offset="1"/></linearGradient><linearGradient id="Áåçûìÿííûé_ãðàäèåíò_31" x1="219.19" y1="373.75" x2="219.19" y2="126.44" gradientUnits="userSpaceOnUse"><stop offset="0" stop-color="#5998ff"/><stop offset="0.15" stop-color="#5896fc"/><stop offset="0.28" stop-color="#5490f1"/><stop offset="0.4" stop-color="#4e85e0"/><stop offset="0.52" stop-color="#4577c7"/><stop offset="0.63" stop-color="#3a64a7"/><stop offset="0.74" stop-color="#2d4c80"/><stop offset="0.85" stop-color="#1c3152"/><stop offset="0.95" stop-color="#0a111d"/><stop offset="1"/></linearGradient><radialGradient id="Áåçûìÿííûé_ãðàäèåíò_54" cx="354.9" cy="218.23" r="103.18" gradientUnits="userSpaceOnUse"><stop offset="0" stop-color="#e5feae"/><stop offset="1" stop-color="#1888a9"/></radialGradient><radialGradient id="Áåçûìÿííûé_ãðàäèåíò_262-6" cx="392.01" cy="257.16" r="81" xlink:href="#Áåçûìÿííûé_ãðàäèåíò_262"/><linearGradient id="Áåçûìÿííûé_ãðàäèåíò_10-2" x1="345.71" y1="132.54" x2="412.53" y2="132.54" xlink:href="#Áåçûìÿííûé_ãðàäèåíò_10"/><linearGradient id="Áåçûìÿííûé_ãðàäèåíò_10-3" x1="388.34" y1="258.32" x2="412.86" y2="258.32" xlink:href="#Áåçûìÿííûé_ãðàäèåíò_10"/><radialGradient id="Áåçûìÿííûé_ãðàäèåíò_56" cx="407.93" cy="291.02" r="72.03" xlink:href="#Áåçûìÿííûé_ãðàäèåíò_54"/><radialGradient id="Áåçûìÿííûé_ãðàäèåíò_262-7" cx="435.08" cy="304.66" r="48.57" xlink:href="#Áåçûìÿííûé_ãðàäèåíò_262"/><linearGradient id="Áåçûìÿííûé_ãðàäèåíò_10-4" x1="396.84" y1="243.46" x2="443.48" y2="243.46" xlink:href="#Áåçûìÿííûé_ãðàäèåíò_10"/><linearGradient id="Áåçûìÿííûé_ãðàäèåíò_11-2" x1="396.85" y1="298.69" x2="436.42" y2="298.69" xlink:href="#Áåçûìÿííûé_ãðàäèåíò_11"/><linearGradient id="Áåçûìÿííûé_ãðàäèåíò_52-2" x1="387.29" y1="377.43" x2="387.29" y2="142.61" xlink:href="#Áåçûìÿííûé_ãðàäèåíò_52"/><linearGradient id="Áåçûìÿííûé_ãðàäèåíò_259-2" x1="417.1" y1="377.43" x2="417.1" y2="305.87" gradientTransform="matrix(1, 0, 0, 1, 0, 0)" xlink:href="#Áåçûìÿííûé_ãðàäèåíò_259"/><linearGradient id="Áåçûìÿííûé_ãðàäèåíò_259-3" x1="364.67" y1="377.43" x2="364.67" y2="322.16" gradientTransform="matrix(1, 0, 0, 1, 0, 0)" xlink:href="#Áåçûìÿííûé_ãðàäèåíò_259"/><linearGradient id="Áåçûìÿííûé_ãðàäèåíò_215-5" x1="380.24" y1="220.68" x2="413.39" y2="220.68" xlink:href="#Áåçûìÿííûé_ãðàäèåíò_215"/><linearGradient id="Áåçûìÿííûé_ãðàäèåíò_185" x1="221.09" y1="198.49" x2="375.07" y2="294.71" gradientUnits="userSpaceOnUse"><stop offset="0" stop-color="#c0b8ff"/><stop offset="0.12" stop-color="#a49ae2"/><stop offset="0.3" stop-color="#7e72bd"/><stop offset="0.4" stop-color="#7063ae"/><stop offset="0.41" stop-color="#7064af"/><stop offset="0.67" stop-color="#6c8dd6"/><stop offset="0.87" stop-color="#69a6ed"/><stop offset="1" stop-color="#68aff6"/></linearGradient><linearGradient id="Áåçûìÿííûé_ãðàäèåíò_97" x1="329.05" y1="376.92" x2="329.05" y2="105.4" gradientUnits="userSpaceOnUse"><stop offset="0.03" stop-color="#276e95"/><stop offset="0.31" stop-color="#306b91"/><stop offset="0.78" stop-color="#496187"/><stop offset="1" stop-color="#575c81"/></linearGradient><linearGradient id="Áåçûìÿííûé_ãðàäèåíò_207" x1="262.39" y1="226.02" x2="365.49" y2="290.44" gradientUnits="userSpaceOnUse"><stop offset="0" stop-color="#575c81"/><stop offset="0.22" stop-color="#496187"/><stop offset="0.69" stop-color="#306b91"/><stop offset="0.97" stop-color="#276e95"/></linearGradient><linearGradient id="Áåçûìÿííûé_ãðàäèåíò_187" x1="218" y1="219.77" x2="354.21" y2="304.88" gradientUnits="userSpaceOnUse"><stop offset="0" stop-color="#dbb5ff"/><stop offset="0.19" stop-color="#9d8fdc"/><stop offset="0.33" stop-color="#7576c6"/><stop offset="0.4" stop-color="#666dbd"/><stop offset="0.5" stop-color="#6f82c8"/><stop offset="0.72" stop-color="#7fabdb"/><stop offset="0.89" stop-color="#89c4e7"/><stop offset="1" stop-color="#8dcdec"/></linearGradient><linearGradient id="Áåçûìÿííûé_ãðàäèåíò_97-2" x1="282.5" y1="221.33" x2="282.5" y2="200.63" xlink:href="#Áåçûìÿííûé_ãðàäèåíò_97"/><linearGradient id="Áåçûìÿííûé_ãðàäèåíò_97-3" x1="278.63" y1="302.02" x2="278.63" y2="293.72" xlink:href="#Áåçûìÿííûé_ãðàäèåíò_97"/><linearGradient id="Áåçûìÿííûé_ãðàäèåíò_189" x1="281.21" y1="301.73" x2="281.21" y2="138.91" gradientUnits="userSpaceOnUse"><stop offset="0" stop-color="#ae97b3"/><stop offset="1" stop-color="#9dffe5"/></linearGradient><linearGradient id="Áåçûìÿííûé_ãðàäèåíò_107" x1="288.5" y1="327.12" x2="301.88" y2="327.12" gradientUnits="userSpaceOnUse"><stop offset="0" stop-color="#ffffe5"/><stop offset="1" stop-color="#aed4b3"/></linearGradient><linearGradient id="Áåçûìÿííûé_ãðàäèåíò_33-2" x1="542.54" y1="377.43" x2="542.54" y2="141.45" gradientTransform="matrix(-1, 0, 0, 1, 1068.11, 0)" xlink:href="#Áåçûìÿííûé_ãðàäèåíò_33"/><linearGradient id="Áåçûìÿííûé_ãðàäèåíò_350-2" x1="586.94" y1="377.43" x2="586.94" y2="141.45" gradientTransform="matrix(-1, 0, 0, 1, 1068.11, 0)" xlink:href="#Áåçûìÿííûé_ãðàäèåíò_350"/><linearGradient id="Áåçûìÿííûé_ãðàäèåíò_33-3" x1="587.31" y1="377.42" x2="587.31" y2="145.81" gradientTransform="matrix(-1, 0, 0, 1, 1068.11, 0)" xlink:href="#Áåçûìÿííûé_ãðàäèåíò_33"/><radialGradient id="Áåçûìÿííûé_ãðàäèåíò_262-8" cx="570.45" cy="258.44" r="77.89" gradientTransform="matrix(-0.82, 0, 0, 1, 966.64, 0)" xlink:href="#Áåçûìÿííûé_ãðàäèåíò_262"/><radialGradient id="Áåçûìÿííûé_ãðàäèåíò_54-2" cx="588.5" cy="205.08" r="82.69" gradientTransform="matrix(-0.82, 0, 0, 1, 966.64, 0)" xlink:href="#Áåçûìÿííûé_ãðàäèåíò_54"/><linearGradient id="Áåçûìÿííûé_ãðàäèåíò_350-3" x1="495.71" y1="259.28" x2="567.79" y2="304.31" gradientTransform="matrix(1, 0, 0, 1, 0, 0)" xlink:href="#Áåçûìÿííûé_ãðàäèåíò_350"/><linearGradient id="Áåçûìÿííûé_ãðàäèåíò_33-4" x1="534.57" y1="377.43" x2="534.57" y2="185.47" gradientTransform="matrix(1, 0, 0, 1, 0, 0)" xlink:href="#Áåçûìÿííûé_ãðàäèåíò_33"/><linearGradient id="Áåçûìÿííûé_ãðàäèåíò_155" x1="460.05" y1="208.13" x2="498.4" y2="208.13" gradientUnits="userSpaceOnUse"><stop offset="0" stop-color="#ffffbd"/><stop offset="0.18" stop-color="#c7efd0"/><stop offset="0.32" stop-color="#9fe4dd"/><stop offset="0.4" stop-color="#90e0e2"/><stop offset="0.53" stop-color="#9de5da"/><stop offset="0.82" stop-color="#b6eeca"/><stop offset="1" stop-color="#bff2c4"/></linearGradient><linearGradient id="Áåçûìÿííûé_ãðàäèåíò_155-2" x1="460.44" y1="249.48" x2="498.87" y2="249.48" xlink:href="#Áåçûìÿííûé_ãðàäèåíò_155"/><linearGradient id="Áåçûìÿííûé_ãðàäèåíò_155-3" x1="460.66" y1="294.96" x2="499.4" y2="294.96" xlink:href="#Áåçûìÿííûé_ãðàäèåíò_155"/><linearGradient id="Áåçûìÿííûé_ãðàäèåíò_215-6" x1="461.17" y1="205.2" x2="490.22" y2="205.2" xlink:href="#Áåçûìÿííûé_ãðàäèåíò_215"/><linearGradient id="Áåçûìÿííûé_ãðàäèåíò_215-7" x1="470.62" y1="245.84" x2="498.87" y2="245.84" xlink:href="#Áåçûìÿííûé_ãðàäèåíò_215"/><linearGradient id="Áåçûìÿííûé_ãðàäèåíò_215-8" x1="461.61" y1="274.24" x2="495.33" y2="274.24" xlink:href="#Áåçûìÿííûé_ãðàäèåíò_215"/><linearGradient id="Áåçûìÿííûé_ãðàäèåíò_215-9" x1="462" y1="336.23" x2="499.86" y2="336.23" xlink:href="#Áåçûìÿííûé_ãðàäèåíò_215"/><linearGradient id="Áåçûìÿííûé_ãðàäèåíò_52-3" x1="462.07" y1="339.52" x2="500.38" y2="339.52" xlink:href="#Áåçûìÿííûé_ãðàäèåíò_52"/><linearGradient id="Áåçûìÿííûé_ãðàäèåíò_259-4" x1="529.23" y1="377.43" x2="529.23" y2="274.24" gradientTransform="matrix(1, 0, 0, 1, 0, 0)" xlink:href="#Áåçûìÿííûé_ãðàäèåíò_259"/><linearGradient id="Áåçûìÿííûé_ãðàäèåíò_359" x1="480.23" y1="239.04" x2="480.23" y2="141.45" gradientUnits="userSpaceOnUse"><stop offset="0"/><stop offset="0.99" stop-color="#1002ff"/></linearGradient><linearGradient id="Áåçûìÿííûé_ãðàäèåíò_350-4" x1="138.68" y1="377.47" x2="138.68" y2="227.13" gradientTransform="matrix(1, 0, 0, 1, 0, 0)" xlink:href="#Áåçûìÿííûé_ãðàäèåíò_350"/><linearGradient id="Áåçûìÿííûé_ãðàäèåíò_33-5" x1="154.22" y1="377.47" x2="154.22" y2="227.13" gradientTransform="matrix(1, 0, 0, 1, 0, 0)" xlink:href="#Áåçûìÿííûé_ãðàäèåíò_33"/><linearGradient id="Áåçûìÿííûé_ãðàäèåíò_350-5" x1="165.36" y1="377.47" x2="165.36" y2="221.33" gradientTransform="matrix(1, 0, 0, 1, 0, 0)" xlink:href="#Áåçûìÿííûé_ãðàäèåíò_350"/><linearGradient id="Áåçûìÿííûé_ãðàäèåíò_33-6" x1="190.5" y1="377.47" x2="190.5" y2="221.33" gradientTransform="matrix(1, 0, 0, 1, 0, 0)" xlink:href="#Áåçûìÿííûé_ãðàäèåíò_33"/><radialGradient id="Áåçûìÿííûé_ãðàäèåíò_54-3" cx="148.2" cy="293.41" r="50.88" xlink:href="#Áåçûìÿííûé_ãðàäèåíò_54"/><linearGradient id="Áåçûìÿííûé_ãðàäèåíò_13" x1="207.13" y1="377.47" x2="207.13" y2="307.61" gradientUnits="userSpaceOnUse"><stop offset="0.03" stop-color="#ff9259"/><stop offset="1" stop-color="#ffb184"/></linearGradient><linearGradient id="Áåçûìÿííûé_ãðàäèåíò_350-6" x1="232.82" y1="377.51" x2="232.82" y2="289.18" gradientTransform="matrix(1, 0, 0, 1, 0, 0)" xlink:href="#Áåçûìÿííûé_ãðàäèåíò_350"/><linearGradient id="Áåçûìÿííûé_ãðàäèåíò_33-7" x1="248.02" y1="377.51" x2="248.02" y2="289.18" gradientTransform="matrix(1, 0, 0, 1, 0, 0)" xlink:href="#Áåçûìÿííûé_ãðàäèåíò_33"/><radialGradient id="Áåçûìÿííûé_ãðàäèåíò_262-9" cx="247.02" cy="327.85" r="30.45" xlink:href="#Áåçûìÿííûé_ãðàäèåíò_262"/><linearGradient id="Áåçûìÿííûé_ãðàäèåíò_350-7" x1="267.18" y1="377.75" x2="267.18" y2="283.86" gradientTransform="matrix(1, 0, 0, 1, 0, 0)" xlink:href="#Áåçûìÿííûé_ãðàäèåíò_350"/><linearGradient id="Áåçûìÿííûé_ãðàäèåíò_33-8" x1="286.96" y1="377.75" x2="286.96" y2="283.86" gradientTransform="matrix(1, 0, 0, 1, 0, 0)" xlink:href="#Áåçûìÿííûé_ãðàäèåíò_33"/><linearGradient id="Áåçûìÿííûé_ãðàäèåíò_215-10" x1="147.28" y1="312.66" x2="158.91" y2="312.66" xlink:href="#Áåçûìÿííûé_ãðàäèåíò_215"/><linearGradient id="Áåçûìÿííûé_ãðàäèåíò_215-11" x1="246.88" y1="321.75" x2="256.85" y2="321.75" xlink:href="#Áåçûìÿííûé_ãðàäèåíò_215"/><linearGradient id="Áåçûìÿííûé_ãðàäèåíò_215-12" x1="245.8" y1="347.63" x2="256.09" y2="347.63" xlink:href="#Áåçûìÿííûé_ãðàäèåíò_215"/><linearGradient id="Áåçûìÿííûé_ãðàäèåíò_33-9" x1="162.16" y1="376.94" x2="162.16" y2="224.74" gradientTransform="translate(452.32 120.27) rotate(86.43)" xlink:href="#Áåçûìÿííûé_ãðàäèåíò_33"/><linearGradient id="Áåçûìÿííûé_ãðàäèåíò_33-10" x1="166.43" y1="377.48" x2="166.43" y2="223.62" gradientTransform="matrix(1, 0, 0, 1, 0, 0)" xlink:href="#Áåçûìÿííûé_ãðàäèåíò_33"/><linearGradient id="Áåçûìÿííûé_ãðàäèåíò_33-11" x1="170.33" y1="377.44" x2="170.33" y2="222.62" gradientTransform="matrix(1, 0, 0, 1, 0, 0)" xlink:href="#Áåçûìÿííûé_ãðàäèåíò_33"/><linearGradient id="Áåçûìÿííûé_ãðàäèåíò_33-12" x1="134.34" y1="377.2" x2="134.34" y2="230.44" gradientTransform="matrix(1, 0, 0, 1, 0, 0)" xlink:href="#Áåçûìÿííûé_ãðàäèåíò_33"/><linearGradient id="Áåçûìÿííûé_ãðàäèåíò_33-13" x1="138.24" y1="377.2" x2="138.24" y2="229.77" gradientTransform="translate(433.91 149.23) rotate(86.94)" xlink:href="#Áåçûìÿííûé_ãðàäèåíò_33"/><linearGradient id="Áåçûìÿííûé_ãðàäèåíò_33-14" x1="141.97" y1="377.76" x2="141.97" y2="228.77" gradientTransform="translate(438.65 147.99) rotate(87.46)" xlink:href="#Áåçûìÿííûé_ãðàäèåíò_33"/><linearGradient id="Áåçûìÿííûé_ãðàäèåíò_33-15" x1="187.47" y1="377.44" x2="187.47" y2="312.22" gradientTransform="matrix(1, 0, 0, 1, 0, 0)" xlink:href="#Áåçûìÿííûé_ãðàäèåíò_33"/><linearGradient id="Áåçûìÿííûé_ãðàäèåíò_33-16" x1="192.44" y1="377.44" x2="192.44" y2="311.51" gradientTransform="matrix(1, 0, 0, 1, 0, 0)" xlink:href="#Áåçûìÿííûé_ãðàäèåíò_33"/><linearGradient id="Áåçûìÿííûé_ãðàäèåíò_33-17" x1="197.47" y1="377.44" x2="197.47" y2="311.15" gradientTransform="matrix(1, 0, 0, 1, 0, 0)" xlink:href="#Áåçûìÿííûé_ãðàäèåíò_33"/><linearGradient id="Áåçûìÿííûé_ãðàäèåíò_33-18" x1="202.67" y1="377.44" x2="202.67" y2="310.5" gradientTransform="matrix(1, 0, 0, 1, 0, 0)" xlink:href="#Áåçûìÿííûé_ãðàäèåíò_33"/><linearGradient id="Áåçûìÿííûé_ãðàäèåíò_33-19" x1="208.08" y1="377.55" x2="208.08" y2="310" gradientTransform="translate(540.3 117.71) rotate(86.95)" xlink:href="#Áåçûìÿííûé_ãðàäèåíò_33"/><linearGradient id="Áåçûìÿííûé_ãðàäèåíò_33-20" x1="213.81" y1="377.55" x2="213.81" y2="309.58" gradientTransform="matrix(1, 0, 0, 1, 0, 0)" xlink:href="#Áåçûìÿííûé_ãðàäèåíò_33"/><linearGradient id="Áåçûìÿííûé_ãðàäèåíò_33-21" x1="219.87" y1="377.55" x2="219.87" y2="308.75" gradientTransform="matrix(1, 0, 0, 1, 0, 0)" xlink:href="#Áåçûìÿííûé_ãðàäèåíò_33"/><linearGradient id="Áåçûìÿííûé_ãðàäèåíò_33-22" x1="227.68" y1="377.38" x2="227.68" y2="292.17" gradientTransform="matrix(1, 0, 0, 1, 0, 0)" xlink:href="#Áåçûìÿííûé_ãðàäèåíò_33"/><linearGradient id="Áåçûìÿííûé_ãðàäèåíò_33-23" x1="232.28" y1="377.44" x2="232.28" y2="291.31" gradientTransform="translate(553.82 84.64) rotate(86.95)" xlink:href="#Áåçûìÿííûé_ãðàäèåíò_33"/><linearGradient id="Áåçûìÿííûé_ãðàäèåíò_33-24" x1="237.23" y1="377.3" x2="237.23" y2="290.24" gradientTransform="matrix(1, 0, 0, 1, 0, 0)" xlink:href="#Áåçûìÿííûé_ãðàäèåíò_33"/><linearGradient id="Áåçûìÿííûé_ãðàäèåíò_33-25" x1="262.06" y1="377.76" x2="262.06" y2="286.4" gradientTransform="translate(582.2 55.55) rotate(87.46)" xlink:href="#Áåçûìÿííûé_ãðàäèåíò_33"/><linearGradient id="Áåçûìÿííûé_ãðàäèåíò_33-26" x1="267.58" y1="377.93" x2="267.58" y2="285.44" gradientTransform="translate(585.8 48.21) rotate(87.2)" xlink:href="#Áåçûìÿííûé_ãðàäèåíò_33"/><linearGradient id="Áåçûìÿííûé_ãðàäèåíò_33-27" x1="272.83" y1="377.82" x2="272.83" y2="284.62" gradientTransform="matrix(1, 0, 0, 1, 0, 0)" xlink:href="#Áåçûìÿííûé_ãðàäèåíò_33"/><linearGradient id="Áåçûìÿííûé_ãðàäèåíò_259-5" x1="212.44" y1="377.75" x2="212.44" y2="336.38" gradientTransform="matrix(1, 0, 0, 1, 0, 0)" xlink:href="#Áåçûìÿííûé_ãðàäèåíò_259"/><linearGradient id="Áåçûìÿííûé_ãðàäèåíò_75-2" x1="589.72" y1="377.46" x2="589.72" y2="263.01" xlink:href="#Áåçûìÿííûé_ãðàäèåíò_75"/><linearGradient id="Áåçûìÿííûé_ãðàäèåíò_20-3" x1="625.06" y1="377.33" x2="623.01" y2="262.72" xlink:href="#Áåçûìÿííûé_ãðàäèåíò_20"/><linearGradient id="Áåçûìÿííûé_ãðàäèåíò_264-3" x1="572.66" y1="377.46" x2="572.66" y2="271.41" xlink:href="#Áåçûìÿííûé_ãðàäèåíò_264"/><radialGradient id="Áåçûìÿííûé_ãðàäèåíò_262-10" cx="610.77" cy="323.71" r="40.51" xlink:href="#Áåçûìÿííûé_ãðàäèåíò_262"/><linearGradient id="Áåçûìÿííûé_ãðàäèåíò_75-3" x1="588.23" y1="356.6" x2="588.23" y2="347.06" xlink:href="#Áåçûìÿííûé_ãðàäèåíò_75"/><linearGradient id="Áåçûìÿííûé_ãðàäèåíò_20-4" x1="608.4" y1="351.41" x2="642.12" y2="351.41" xlink:href="#Áåçûìÿííûé_ãðàäèåíò_20"/><linearGradient id="Áåçûìÿííûé_ãðàäèåíò_15" x1="535.03" y1="356.2" x2="642.12" y2="356.2" gradientUnits="userSpaceOnUse"><stop offset="0" stop-color="#acb9d4"/><stop offset="1" stop-color="#8e98d0"/></linearGradient><linearGradient id="Áåçûìÿííûé_ãðàäèåíò_14" x1="537.23" y1="313.97" x2="641.44" y2="313.97" xlink:href="#Áåçûìÿííûé_ãðàäèåíò_15"/><linearGradient id="Áåçûìÿííûé_ãðàäèåíò_75-4" x1="588.69" y1="314.94" x2="588.69" y2="303.9" xlink:href="#Áåçûìÿííûé_ãðàäèåíò_75"/><linearGradient id="Áåçûìÿííûé_ãðàäèåíò_20-5" x1="608" y1="308.49" x2="641.44" y2="308.49" xlink:href="#Áåçûìÿííûé_ãðàäèåíò_20"/><linearGradient id="Áåçûìÿííûé_ãðàäèåíò_16" x1="589.72" y1="377.46" x2="589.72" y2="327.07" gradientUnits="userSpaceOnUse"><stop offset="0.01" stop-color="#1002ff"/><stop offset="1"/></linearGradient><linearGradient id="Áåçûìÿííûé_ãðàäèåíò_52-4" x1="400.29" y1="375.61" x2="435.84" y2="314.03" xlink:href="#Áåçûìÿííûé_ãðàäèåíò_52"/><linearGradient id="Áåçûìÿííûé_ãðàäèåíò_75-5" x1="371.35" y1="377.52" x2="371.35" y2="293.94" xlink:href="#Áåçûìÿííûé_ãðàäèåíò_75"/><linearGradient id="Áåçûìÿííûé_ãðàäèåíò_20-6" x1="399.92" y1="377.59" x2="398.42" y2="293.78" xlink:href="#Áåçûìÿííûé_ãðàäèåíò_20"/><linearGradient id="Áåçûìÿííûé_ãðàäèåíò_25" x1="355.79" y1="306.99" x2="409.03" y2="306.99" xlink:href="#Áåçûìÿííûé_ãðàäèåíò_54"/><linearGradient id="Áåçûìÿííûé_ãðàäèåíò_25-2" x1="355.14" y1="322.68" x2="409.23" y2="322.68" xlink:href="#Áåçûìÿííûé_ãðàäèåíò_54"/><linearGradient id="Áåçûìÿííûé_ãðàäèåíò_25-3" x1="354.68" y1="336.48" x2="409.23" y2="336.48" xlink:href="#Áåçûìÿííûé_ãðàäèåíò_54"/><linearGradient id="Áåçûìÿííûé_ãðàäèåíò_25-4" x1="354.06" y1="351.34" x2="409.6" y2="351.34" xlink:href="#Áåçûìÿííûé_ãðàäèåíò_54"/><linearGradient id="Áåçûìÿííûé_ãðàäèåíò_25-5" x1="353.41" y1="366.79" x2="409.85" y2="366.79" xlink:href="#Áåçûìÿííûé_ãðàäèåíò_54"/><radialGradient id="Áåçûìÿííûé_ãðàäèåíò_262-11" cx="404.94" cy="342.18" r="30.44" xlink:href="#Áåçûìÿííûé_ãðàäèåíò_262"/><radialGradient id="Áåçûìÿííûé_ãðàäèåíò_262-12" cx="404.94" cy="344.49" r="30.44" xlink:href="#Áåçûìÿííûé_ãðàäèåíò_262"/><radialGradient id="Áåçûìÿííûé_ãðàäèåíò_262-13" cx="404.93" cy="344.49" r="30.44" xlink:href="#Áåçûìÿííûé_ãðàäèåíò_262"/><radialGradient id="Áåçûìÿííûé_ãðàäèåíò_262-14" cx="404.93" cy="344.49" r="30.44" xlink:href="#Áåçûìÿííûé_ãðàäèåíò_262"/><radialGradient id="Áåçûìÿííûé_ãðàäèåíò_262-15" cx="404.94" cy="344.49" r="30.44" xlink:href="#Áåçûìÿííûé_ãðàäèåíò_262"/><linearGradient id="Áåçûìÿííûé_ãðàäèåíò_43" x1="295.19" y1="117.84" x2="295.19" y2="83.62" gradientUnits="userSpaceOnUse"><stop offset="0" stop-color="#5998ff"/><stop offset="0.12" stop-color="#5d90ff"/><stop offset="0.32" stop-color="#6779ff"/><stop offset="0.56" stop-color="#7953ff"/><stop offset="0.85" stop-color="#9020ff"/><stop offset="1" stop-color="#9f00ff"/></linearGradient><linearGradient id="Áåçûìÿííûé_ãðàäèåíò_42" x1="295.19" y1="88.36" x2="295.19" y2="52.44" gradientTransform="translate(317.12 -232.28) rotate(80.73)" gradientUnits="userSpaceOnUse"><stop offset="0" stop-color="#9f00ff"/><stop offset="0.15" stop-color="#9020ff"/><stop offset="0.44" stop-color="#7953ff"/><stop offset="0.68" stop-color="#6779ff"/><stop offset="0.88" stop-color="#5d90ff"/><stop offset="1" stop-color="#5998ff"/></linearGradient><linearGradient id="Áåçûìÿííûé_ãðàäèåíò_43-2" x1="656.77" y1="139.78" x2="656.77" y2="105.56" xlink:href="#Áåçûìÿííûé_ãðàäèåíò_43"/><linearGradient id="Áåçûìÿííûé_ãðàäèåíò_42-2" x1="656.77" y1="110.3" x2="656.77" y2="74.37" gradientTransform="matrix(1, 0, 0, 1, 0, 0)" xlink:href="#Áåçûìÿííûé_ãðàäèåíò_42"/><linearGradient id="Áåçûìÿííûé_ãðàäèåíò_43-3" x1="617.58" y1="259.61" x2="617.58" y2="225.39" xlink:href="#Áåçûìÿííûé_ãðàäèåíò_43"/><linearGradient id="Áåçûìÿííûé_ãðàäèåíò_42-3" x1="617.58" y1="230.13" x2="617.58" y2="194.2" gradientTransform="matrix(1, 0, 0, 1, 0, 0)" xlink:href="#Áåçûìÿííûé_ãðàäèåíò_42"/><linearGradient id="Áåçûìÿííûé_ãðàäèåíò_43-4" x1="374.89" y1="289.36" x2="374.89" y2="255.14" xlink:href="#Áåçûìÿííûé_ãðàäèåíò_43"/><linearGradient id="Áåçûìÿííûé_ãðàäèåíò_42-4" x1="374.89" y1="259.88" x2="374.89" y2="223.96" gradientTransform="matrix(1, 0, 0, 1, 0, 0)" xlink:href="#Áåçûìÿííûé_ãðàäèåíò_42"/><linearGradient id="Áåçûìÿííûé_ãðàäèåíò_43-5" x1="157.42" y1="209.7" x2="157.42" y2="116.63" xlink:href="#Áåçûìÿííûé_ãðàäèåíò_43"/><linearGradient id="Áåçûìÿííûé_ãðàäèåíò_42-5" x1="157.42" y1="121.36" x2="157.42" y2="85.44" gradientTransform="translate(52.27 -52.85) rotate(22.76)" xlink:href="#Áåçûìÿííûé_ãðàäèåíò_42"/><linearGradient id="Áåçûìÿííûé_ãðàäèåíò_43-6" x1="431.63" y1="200.15" x2="431.63" y2="107.07" xlink:href="#Áåçûìÿííûé_ãðàäèåíò_43"/><linearGradient id="Áåçûìÿííûé_ãðàäèåíò_42-6" x1="431.63" y1="111.81" x2="431.63" y2="75.89" gradientTransform="matrix(1, 0, 0, 1, 0, 0)" xlink:href="#Áåçûìÿííûé_ãðàäèåíò_42"/></defs><g class="cls-1"><g id="city"><polygon class="cls-2" points="525.57 377.43 537.2 121.36 582.97 77.24 606.72 69.5 613.27 377.92 525.57 377.43"/><polygon class="cls-3" points="606.86 75.72 566.65 114.57 561.64 377.03 615.96 377.17 606.86 75.72"/><polygon class="cls-4" points="606.72 69.5 561.64 114.57 559.08 377.57 565.76 377.8 566.65 114.57 606.86 75.72 606.72 69.5"/><polygon class="cls-5" points="537.2 121.36 561.64 114.57 556.64 377.43 525.57 377.43 537.2 121.36"/><g class="cls-6"><rect class="cls-7" x="572.46" y="108.77" width="0.39" height="269.33"/><rect class="cls-7" x="579.41" y="102.43" width="0.39" height="268.19"/><rect class="cls-7" x="585.23" y="96.43" width="0.39" height="269.09"/><rect class="cls-7" x="590.7" y="91.75" width="0.39" height="268.19"/><rect class="cls-7" x="598.01" y="85.43" width="0.39" height="269.32" transform="translate(-2.27 6.28) rotate(-0.6)"/><rect class="cls-7" x="604.57" y="80.86" width="0.39" height="266.24" transform="translate(-4.38 12.82) rotate(-1.21)"/><polygon class="cls-7" points="607.89 112.86 581.75 100.07 581.92 99.72 608.06 112.51 607.89 112.86"/><rect class="cls-7" x="600.02" y="85.02" width="0.39" height="16.68" transform="translate(206.47 555.9) rotate(-58.43)"/><polygon class="cls-7" points="607.97 132.05 566.58 114.75 566.73 114.39 608.12 131.7 607.97 132.05"/><polygon class="cls-7" points="609.1 152.61 566.58 134.84 566.73 134.48 609.25 152.26 609.1 152.61"/><polygon class="cls-7" points="609.1 173.17 566.58 155.4 566.73 155.04 609.25 172.82 609.1 173.17"/><polygon class="cls-7" points="610.28 191.44 566.59 175.96 566.72 175.59 610.41 191.07 610.28 191.44"/><polygon class="cls-7" points="610.95 211.56 566.59 196.52 566.72 196.15 611.07 211.2 610.95 211.56"/><polygon class="cls-7" points="611.46 230.14 566.6 217.08 566.71 216.71 611.57 229.76 611.46 230.14"/><polygon class="cls-7" points="612.09 248.02 566.61 237.65 566.7 237.27 612.18 247.64 612.09 248.02"/></g><polygon class="cls-8" points="606.97 80.89 572.08 116.83 572.66 378.1 565.76 377.8 566.65 114.57 606.86 75.72 606.97 80.89"/><polygon class="cls-9" points="615.96 377.17 608.05 131.88 536.74 141.94 525.57 377.43 615.96 377.17"/><polygon class="cls-10" points="632.03 378.1 620.15 312.74 651.72 165.83 668.51 131.88 690.91 217.13 688.78 378 632.03 378.1"/><polygon class="cls-11" points="634.9 378.1 690.91 217.13 688.78 378 634.9 378.1"/><polygon class="cls-12" points="651.72 165.83 690.91 217.13 634.9 378.1 632.03 378.1 620.15 312.74 651.72 165.83"/><polygon class="cls-13" points="635.23 378.21 634.56 377.98 690.51 217.19 651.44 166.04 652 165.61 691.31 217.07 635.23 378.21"/><g class="cls-6"><rect class="cls-7" x="687.05" y="232.15" width="0.35" height="145.87" transform="translate(-6.33 14.68) rotate(-1.22)"/><polygon class="cls-7" points="687.05 378.01 680 248.03 646.22 190.81 646.53 190.63 680.35 247.93 680.35 247.97 687.4 377.99 687.05 378.01"/><polygon class="cls-7" points="685.5 378.02 672.05 270.88 642.99 205.77 643.32 205.63 672.4 270.81 685.85 377.98 685.5 378.02"/><polygon class="cls-7" points="682.8 378.04 664.26 293.25 639.5 223.24 639.84 223.12 664.6 293.15 683.15 377.96 682.8 378.04"/><polygon class="cls-7" points="681.36 378.06 657.44 312.89 635.35 241.29 635.68 241.19 657.78 312.78 681.69 377.94 681.36 378.06"/><polygon class="cls-7" points="680.58 378.19 651.42 330.26 630.25 266.96 630.59 266.85 651.74 330.11 680.89 378 680.58 378.19"/><polygon class="cls-7" points="678.83 378.13 645.17 348.23 645.15 348.19 625.67 286.29 626.01 286.19 645.48 348.03 679.07 377.87 678.83 378.13"/><polygon class="cls-7" points="676.8 378.17 639.52 366.31 639.5 366.22 622.8 299.63 623.15 299.55 639.82 366.04 676.91 377.83 676.8 378.17"/><polygon class="cls-7" points="686.03 230.8 650 173.22 650.3 173.03 686.33 230.61 686.03 230.8"/><polygon class="cls-7" points="621.64 320.05 621.29 319.97 655.36 170.77 667.96 132.59 668.3 132.7 655.7 170.87 621.64 320.05"/><polygon class="cls-7" points="623.79 331.86 623.45 331.78 661.15 179.29 668.88 133.93 669.23 133.99 661.5 179.37 623.79 331.86"/><polygon class="cls-7" points="625.96 343.78 625.61 343.69 668.88 188.5 669.38 135.85 669.73 135.85 669.23 188.57 625.96 343.78"/><polygon class="cls-7" points="627.37 354.8 627.03 354.69 675.2 196.78 670.71 140.93 671.06 140.9 675.56 196.82 675.55 196.85 627.37 354.8"/><polygon class="cls-7" points="629.66 364.17 629.32 364.05 683.87 208.13 672.2 146.62 672.55 146.55 684.23 208.16 684.21 208.21 629.66 364.17"/></g><polygon class="cls-14" points="635.52 241.24 657.16 314.13 680.24 246.1 646.8 188.75 635.52 241.24"/><polygon class="cls-15" points="185.55 370.38 197.41 121.36 214.38 110.68 205.67 371.39 185.55 370.38"/><polygon class="cls-16" points="214.38 110.68 249.03 120.09 246.88 373.32 205.67 371.39 214.38 110.68"/><polygon class="cls-17" points="244.15 118.77 235.64 372.89 251.88 373.57 255.94 119.36 244.15 118.77"/><polygon class="cls-18" points="255.94 119.36 261.65 123.24 255.46 373.75 249.65 373.46 255.94 119.36"/><polygon class="cls-19" points="215.87 131.07 207.51 371.48 248.21 373.39 253.63 138.1 230.97 130.77 221.6 130.3 215.87 131.07"/><polygon class="cls-20" points="198.69 138.02 211.59 130.86 201.88 371.2 187.65 370.49 198.69 138.02"/><polygon class="cls-21" points="221.49 131.35 221.13 141.82 221.13 141.83 221.1 142.35 220.74 152.84 220.72 153.36 220.38 163.13 220.37 163.65 220.04 172.82 220.03 173.35 219.66 183.97 219.63 184.49 219.31 193.67 219.29 194.19 218.94 204.27 218.94 204.8 218.57 215.08 218.56 215.6 218.16 227.22 218.13 227.75 217.78 237.78 217.76 238.31 217.41 248.34 217.4 248.87 216.99 260.85 216.97 261.38 213.13 371.76 212.87 371.75 207.5 371.48 211.34 261.11 211.37 260.58 211.78 248.6 211.81 248.07 212.16 238.04 212.16 237.52 212.51 227.48 212.53 226.95 212.94 215.24 212.97 214.71 213.32 204.44 213.34 203.92 213.69 193.85 213.71 193.33 214.03 184.17 214.04 183.65 214.41 173.03 214.44 172.51 214.75 163.35 214.76 162.83 215.1 153.1 215.13 152.57 215.49 142.38 215.5 141.85 215.88 131.07 221.22 131.34 221.49 131.35"/><polygon class="cls-22" points="230.99 131.83 222.56 372.24 248.21 373.39 253.57 139.41 230.99 131.83"/><polygon class="cls-23" points="223.19 130.42 223.7 120.09 231.52 119.82 250.84 126.3 250.31 136.76 230.97 130.77 223.19 130.42"/><polygon class="cls-24" points="231.52 119.82 230.45 130.67 222.53 130.4 223.7 120.09 231.52 119.82"/><g class="cls-6"><polygon class="cls-25" points="253.16 148.63 253.03 149.14 252.31 148.95 251.79 148.81 247.82 147.76 247.31 147.62 243.44 146.6 242.93 146.46 239.09 145.45 238.56 145.31 234.69 144.28 234.19 144.15 230.84 143.26 230.32 143.13 230.31 143.12 221.37 142.38 221.1 142.35 220.93 142.34 220.84 142.34 215.49 142.38 215.5 141.85 220.87 141.81 220.94 141.81 221.13 141.82 221.13 141.83 221.38 141.85 230.34 142.61 230.38 142.61 230.87 142.74 234.19 143.62 234.72 143.75 238.59 144.78 239.1 144.91 242.94 145.93 243.46 146.06 247.32 147.09 247.84 147.22 251.81 148.27 252.32 148.41 253.16 148.63"/><polygon class="cls-26" points="252.65 158.88 252.51 159.39 252.07 159.28 251.56 159.16 247.47 158.15 246.94 158.03 243.07 157.08 242.56 156.95 238.72 156.01 238.21 155.89 234.32 154.94 233.81 154.81 230.47 153.99 229.96 153.87 229.76 153.82 220.97 153.37 220.72 153.36 220.46 153.34 220.38 153.34 215.1 153.1 215.13 152.57 220.41 152.82 220.47 152.82 220.74 152.84 221 152.85 229.84 153.31 229.97 153.34 230.49 153.47 233.82 154.28 234.34 154.41 238.22 155.36 238.74 155.48 242.57 156.42 243.09 156.55 246.97 157.49 247.49 157.62 251.56 158.62 252.09 158.74 252.65 158.88"/><polygon class="cls-27" points="252.16 168.27 252.06 168.79 251.85 168.75 251.34 168.66 247.13 167.91 246.6 167.82 242.74 167.13 242.22 167.04 238.35 166.36 237.84 166.27 233.96 165.58 233.44 165.49 230.09 164.89 229.56 164.8 229.24 164.74 220.63 163.68 220.37 163.65 220.1 163.62 219.85 163.59 214.75 163.35 214.76 162.83 219.9 163.07 220.13 163.1 220.38 163.13 220.63 163.16 229.31 164.22 229.59 164.27 230.1 164.36 233.46 164.95 233.97 165.05 237.85 165.74 238.38 165.83 242.24 166.51 242.75 166.6 246.63 167.29 247.15 167.38 251.35 168.13 251.87 168.22 252.16 168.27"/><polygon class="cls-28" points="251.68 177.95 251.63 178.15 251.59 178.46 251.12 178.38 246.78 177.61 246.28 177.52 242.4 176.83 241.88 176.74 238.03 176.05 237.5 175.96 233.63 175.27 233.1 175.18 229.75 174.59 229.22 174.49 228.75 174.41 220.28 173.38 220.03 173.35 219.76 173.32 219.37 173.27 214.41 173.03 214.44 172.51 219.41 172.74 219.78 172.79 220.04 172.82 220.31 172.85 228.84 173.9 229.25 173.97 229.76 174.06 233.13 174.66 233.63 174.75 237.53 175.44 238.04 175.53 241.9 176.22 242.41 176.31 246.29 177 246.81 177.09 251.13 177.85 251.65 177.94 251.68 177.95"/><polygon class="cls-29" points="251.18 187.62 251.12 188.14 250.88 188.11 246.44 187.61 245.93 187.55 242.03 187.11 241.53 187.05 237.66 186.61 237.13 186.55 233.25 186.11 232.72 186.05 229.35 185.67 228.84 185.61 228.22 185.54 219.9 184.52 219.63 184.49 219.38 184.46 218.81 184.39 214.03 184.17 214.04 183.65 218.85 183.87 219.4 183.94 219.66 183.97 219.91 184 228.28 185.02 228.85 185.09 229.38 185.14 232.75 185.53 233.26 185.59 237.16 186.03 237.68 186.09 241.53 186.53 242.06 186.58 245.94 187.03 246.47 187.08 250.91 187.59 251.18 187.62"/><polygon class="cls-30" points="250.69 197.3 250.68 197.39 250.63 197.82 246.1 197.31 245.59 197.25 241.71 196.81 241.19 196.75 237.31 196.31 236.79 196.25 232.91 195.81 232.38 195.75 229.01 195.37 228.5 195.31 227.72 195.22 219.56 194.22 219.29 194.19 219.04 194.16 218.32 194.07 213.69 193.85 213.71 193.33 218.37 193.55 219.06 193.63 219.31 193.67 219.57 193.7 227.79 194.7 228.51 194.78 229.03 194.84 232.41 195.22 232.93 195.28 236.81 195.72 237.34 195.78 241.21 196.22 241.72 196.28 245.6 196.72 246.13 196.78 250.68 197.3 250.69 197.3"/><polygon class="cls-31" points="250.16 207.89 250.09 208.41 245.75 207.92 245.22 207.86 241.34 207.42 240.81 207.36 236.96 206.92 236.44 206.86 232.54 206.42 232.03 206.36 228.65 205.97 228.13 205.92 227.19 205.81 219.19 204.83 218.68 204.77 217.79 204.66 213.32 204.44 213.34 203.92 217.84 204.13 218.69 204.24 218.94 204.27 219.21 204.3 227.26 205.29 228.15 205.39 228.66 205.45 232.03 205.83 232.56 205.89 236.44 206.33 236.97 206.39 240.84 206.83 241.35 206.89 245.25 207.33 245.76 207.39 250.16 207.89"/><polygon class="cls-32" points="249.62 218.67 249.56 219.19 245.37 218.71 244.85 218.66 240.97 218.21 240.44 218.16 236.57 217.72 236.06 217.66 232.16 217.22 231.65 217.16 228.26 216.77 227.75 216.71 226.66 216.59 218.81 215.63 218.56 215.6 218.29 215.57 217.25 215.44 212.94 215.24 212.97 214.71 217.29 214.92 218.31 215.04 218.57 215.08 218.84 215.11 226.72 216.07 227.76 216.19 228.28 216.25 231.66 216.63 232.19 216.69 236.07 217.13 236.59 217.19 240.47 217.63 240.99 217.69 244.87 218.13 245.38 218.19 249.62 218.67"/><polygon class="cls-33" points="249.06 229.45 249.03 229.97 245 229.65 244.47 229.61 240.59 229.3 240.06 229.25 236.19 228.95 235.66 228.9 231.78 228.59 231.25 228.55 227.87 228.28 227.34 228.24 226.09 228.14 218.4 227.77 218.13 227.75 217.88 227.74 212.51 227.48 212.53 226.95 216.69 227.15 217.9 227.21 218.16 227.22 218.41 227.24 226.13 227.62 227.37 227.72 227.88 227.76 231.26 228.03 231.78 228.07 235.69 228.38 236.21 228.42 240.07 228.73 240.59 228.77 244.5 229.09 245 229.13 249.06 229.45"/><polygon class="cls-34" points="248.53 240 248.5 240.52 244.63 240.21 244.1 240.17 240.22 239.86 239.69 239.82 235.81 239.51 235.29 239.47 231.41 239.16 230.88 239.11 227.5 238.84 226.97 238.8 225.56 238.69 218.03 238.32 217.5 238.3 212.16 238.04 212.16 237.52 216.16 237.7 217.53 237.77 217.78 237.78 218.04 237.79 225.59 238.17 227 238.28 227.51 238.32 230.91 238.59 231.43 238.63 235.31 238.95 235.84 238.99 239.72 239.3 240.24 239.34 244.13 239.65 244.65 239.69 248.53 240"/><polygon class="cls-35" points="248 250.55 247.97 251.07 244.26 250.77 243.75 250.73 239.84 250.42 239.34 250.38 235.46 250.07 234.94 250.03 231.03 249.72 230.51 249.68 227.13 249.41 226.6 249.37 225.03 249.24 217.66 248.88 217.4 248.87 217.13 248.86 211.78 248.6 211.81 248.07 215.63 248.25 217.16 248.33 217.41 248.34 217.68 248.35 225.06 248.72 226.63 248.84 227.15 248.89 230.53 249.16 231.06 249.2 234.96 249.51 235.47 249.55 239.34 249.86 239.87 249.9 243.76 250.21 244.28 250.25 248 250.55"/><polygon class="cls-36" points="247.38 263.06 247.34 263.58 243.82 263.3 243.31 263.26 239.41 262.95 238.9 262.91 235.01 262.6 234.5 262.56 230.6 262.24 230.09 262.2 226.69 261.93 226.16 261.89 224.41 261.75 217.22 261.4 216.97 261.38 216.71 261.37 211.34 261.11 211.37 260.58 215 260.75 216.72 260.84 217.25 260.86 224.44 261.23 226.19 261.37 226.71 261.41 230.1 261.68 230.62 261.72 234.51 262.03 235.03 262.08 238.91 262.38 239.44 262.43 243.32 262.74 243.84 262.78 247.38 263.06"/><polygon class="cls-37" points="213.38 371.78 212.86 371.75 221.22 131.34 221.75 131.37 213.38 371.78"/><polygon class="cls-38" points="222.82 372.25 222.3 372.22 230.73 131.81 231.25 131.84 222.82 372.25"/><polygon class="cls-39" points="226.78 372.45 226.26 372.42 234.56 133.1 235.09 133.13 226.78 372.45"/><polygon class="cls-40" points="231.2 372.67 230.68 372.64 238.99 133.33 239.51 133.35 231.2 372.67"/><polygon class="cls-41" points="235.62 372.89 235.1 372.87 243.28 136.03 243.8 136.06 235.62 372.89"/><polygon class="cls-42" points="240.04 373.11 239.52 373.09 247.68 136.63 248.21 136.66 240.04 373.11"/><polygon class="cls-43" points="247.14 373.33 246.62 373.31 252.04 138.02 252.57 138.04 247.14 373.33"/></g><rect class="cls-44" x="198.69" y="220" width="0.52" height="13.73" transform="translate(-37.58 414.21) rotate(-87.13)"/><rect class="cls-44" x="198.03" y="230.4" width="0.52" height="14" transform="matrix(0.05, -1, 1, 0.05, -48.74, 423.57)"/><rect class="cls-44" x="197.32" y="240.53" width="0.52" height="14.01" transform="translate(-54.61 439.14) rotate(-88.63)"/><rect class="cls-44" x="196.38" y="253.34" width="0.52" height="14.31" transform="translate(-74.85 441.65) rotate(-86.66)"/><polygon class="cls-45" points="215.82 132.13 221.49 131.35 230.99 131.83 253.57 139.41 253.63 138.1 230.97 130.77 221.6 130.3 215.87 131.07 215.82 132.13"/><polygon class="cls-46" points="215.28 163.31 213.21 193.81 218.85 193.55 220.38 163.07 215.28 163.31"/><polygon class="cls-47" points="219.37 173.27 217.84 204.14 217.3 214.92 226.66 216.59 228.28 185.03 228.83 173.9 219.37 173.27"/><polygon class="cls-48" points="219.9 163.07 229.32 164.22 229.77 153.83 220.38 153.34 219.9 163.07"/><polygon class="cls-49" points="185.55 370.38 193.52 203.06 217.74 211.29 213.12 371.76 185.55 370.38"/><polygon class="cls-50" points="253.46 373.75 254.85 126.44 197.13 133.7 183.53 370.59 253.46 373.75"/><polygon class="cls-51" points="338.61 377.43 345.71 97.73 412.53 139.5 421.9 377.43 338.61 377.43"/><polygon class="cls-52" points="390.43 377.43 388.78 167.35 412.53 139.5 421.9 377.43 390.43 377.43"/><polygon class="cls-53" points="345.71 97.73 388.78 167.35 412.53 139.5 345.71 97.73"/><polygon class="cls-54" points="389.99 377.43 388.34 167.19 412.19 139.21 412.86 139.79 389.23 167.51 390.87 377.42 389.99 377.43"/><rect class="cls-7" x="366.81" y="91.6" width="0.88" height="81.87" transform="translate(-14.8 213.04) rotate(-31.74)"/><g class="cls-6"><rect class="cls-7" x="229.67" y="248.37" width="257.7" height="0.44" transform="translate(105.15 603.74) rotate(-89.23)"/><rect class="cls-7" x="250.4" y="257.95" width="238.53" height="0.44" transform="translate(106.57 624.35) rotate(-89.23)"/><polygon class="cls-7" points="396.62 377.43 392.75 162.56 381.78 155.03 378.95 377.43 378.51 377.42 381.35 154.2 393.18 162.33 393.19 162.44 397.06 377.42 396.62 377.43"/><rect class="cls-7" x="401.32" y="154.6" width="0.44" height="222.84" transform="matrix(1, -0.02, 0.02, 1, -4.48, 6.89)"/><rect class="cls-7" x="405.16" y="149.92" width="0.44" height="227.52" transform="translate(-4.44 6.95) rotate(-0.98)"/><polygon class="cls-7" points="418.35 377.44 410.37 142.06 351.02 106.34 347.56 377.43 347.12 377.42 350.59 105.57 410.8 141.81 410.81 141.93 418.79 377.42 418.35 377.44"/><polygon class="cls-7" points="411.06 377.43 407.11 146.06 358.5 118.67 345.14 123.08 345 122.66 358.54 118.19 358.63 118.23 407.54 145.8 407.55 145.93 411.5 377.42 411.06 377.43"/><rect class="cls-7" x="344.05" y="157.25" width="37.73" height="0.44" transform="translate(-19.59 56.49) rotate(-8.67)"/><rect class="cls-7" x="343.53" y="169.3" width="45.44" height="0.44" transform="translate(-16.82 42.51) rotate(-6.49)"/><polygon class="cls-7" points="413.03 154.81 403.35 150.14 364.96 129.13 345.13 133.97 345.02 133.54 365.03 128.66 365.1 128.7 403.55 149.75 413.22 154.42 413.03 154.81"/><polygon class="cls-7" points="413.36 162.98 398.51 156.61 371.15 139.15 344.31 144.89 344.22 144.46 371.24 138.68 371.31 138.73 398.72 156.22 413.53 162.58 413.36 162.98"/><rect class="cls-7" x="401.15" y="158.33" width="0.44" height="26.59" transform="translate(109.71 496.42) rotate(-71.23)"/><rect class="cls-7" x="401.44" y="173.45" width="0.44" height="26.81" transform="translate(110.65 520.86) rotate(-73.88)"/><rect class="cls-7" x="401.7" y="186.73" width="0.44" height="27.13" transform="translate(107.74 539.58) rotate(-75.56)"/><rect class="cls-7" x="402.04" y="201.32" width="0.44" height="27.32" transform="translate(107.33 562.89) rotate(-77.83)"/><rect class="cls-7" x="392.75" y="224.29" width="0.44" height="8.31" transform="translate(86.83 564.44) rotate(-77.83)"/><rect class="cls-7" x="392.89" y="238.8" width="0.44" height="8.45" transform="translate(110.65 608.82) rotate(-84.05)"/><rect class="cls-7" x="392.89" y="252" width="0.44" height="8.45" transform="translate(97.56 620.69) rotate(-84.06)"/><rect class="cls-7" x="393.54" y="275.92" width="0.44" height="8.45" transform="translate(74.36 642.78) rotate(-84.06)"/><rect class="cls-7" x="393.15" y="263.78" width="0.44" height="9" transform="translate(75.28 622.58) rotate(-82.38)"/><rect class="cls-7" x="393.77" y="287.7" width="0.44" height="8.45" transform="translate(62.84 653.57) rotate(-84.06)"/><rect class="cls-7" x="393.98" y="299.33" width="0.44" height="8.45" transform="translate(51.42 664.17) rotate(-84.05)"/><rect class="cls-7" x="394.06" y="311.07" width="0.44" height="9.04" transform="translate(39.51 675.03) rotate(-84.05)"/><rect class="cls-7" x="394.59" y="323.6" width="0.44" height="8.9" transform="translate(27.62 686.74) rotate(-84.05)"/><rect class="cls-7" x="394.52" y="334.29" width="0.44" height="9" transform="translate(37.16 716.6) rotate(-87.21)"/><rect class="cls-7" x="394.8" y="346.5" width="0.44" height="9.25" transform="translate(25.61 729.09) rotate(-87.29)"/><rect class="cls-7" x="394.77" y="359.16" width="0.44" height="9.52" transform="translate(11.86 740.31) rotate(-87.15)"/><rect class="cls-7" x="343.3" y="185.25" width="45.72" height="0.44" transform="translate(-17.02 38.35) rotate(-5.86)"/><rect class="cls-7" x="343.37" y="198.78" width="45.48" height="0.44" transform="translate(-13.21 26.52) rotate(-4.07)"/><rect class="cls-7" x="343.37" y="213.51" width="45.48" height="0.44" transform="translate(-14.26 26.55) rotate(-4.07)"/><rect class="cls-7" x="342.28" y="228.56" width="46.56" height="0.44" transform="translate(-15.33 26.55) rotate(-4.07)"/><rect class="cls-7" x="342.31" y="243.72" width="46.5" height="0.44" transform="translate(-12 19.02) rotate(-2.93)"/><rect class="cls-7" x="341.61" y="256.78" width="47.21" height="0.44" transform="translate(-12.66 19.01) rotate(-2.93)"/><rect class="cls-7" x="341.3" y="268.68" width="47.51" height="0.44" transform="translate(-13.22 18.93) rotate(-2.92)"/><rect class="cls-7" x="341" y="280.59" width="47.82" height="0.44" transform="translate(-13.88 19.02) rotate(-2.93)"/><rect class="cls-7" x="340.7" y="292.5" width="48.12" height="0.44" transform="translate(-14.49 19.03) rotate(-2.93)"/><rect class="cls-7" x="340.39" y="304.4" width="48.42" height="0.44" transform="translate(-15.04 18.96) rotate(-2.92)"/><rect class="cls-7" x="340.09" y="316.29" width="49.64" height="0.44" transform="translate(-15.71 19.07) rotate(-2.93)"/><polygon class="cls-7" points="339.83 329.92 339.81 329.48 390.03 327.4 390.05 327.84 339.83 329.92"/><rect class="cls-7" x="339.49" y="340.09" width="50.68" height="0.44" transform="translate(-16.85 19.02) rotate(-2.92)"/><rect class="cls-7" x="339.18" y="352" width="51.07" height="0.44" transform="translate(-17.54 19.11) rotate(-2.93)"/><rect class="cls-7" x="338.91" y="364.58" width="51.43" height="0.44" transform="translate(-8.85 9.07) rotate(-1.41)"/><rect class="cls-7" x="338.61" y="377.21" width="51.82" height="0.44"/></g><polygon class="cls-55" points="396.84 219.75 400.01 377.43 450.16 377.43 443.48 233.46 396.84 219.75"/><polygon class="cls-56" points="443.48 233.46 433.45 267.18 435.98 377.43 450.16 377.43 443.48 233.46"/><polygon class="cls-57" points="396.84 219.75 433.45 267.18 443.48 233.46 396.84 219.75"/><polygon class="cls-58" points="435.54 377.44 433.02 267.33 396.85 220.48 397.54 219.94 433.89 267.02 433.89 267.17 436.42 377.42 435.54 377.44"/><rect class="cls-7" x="420.88" y="249.88" width="35.17" height="0.88" transform="translate(73.89 599.6) rotate(-73.49)"/><g class="cls-6"><rect class="cls-7" x="403.43" y="225.82" width="0.44" height="151.63" transform="translate(-6.78 9.3) rotate(-1.31)"/><polygon class="cls-7" points="414.36 377.43 411.61 239.17 412.05 239.16 414.8 377.42 414.36 377.43"/><rect class="cls-7" x="420.28" y="248.57" width="0.44" height="128.87" transform="translate(-6.7 9.21) rotate(-1.25)"/><rect class="cls-7" x="428.04" y="258.44" width="0.44" height="119" transform="translate(-8.06 11.16) rotate(-1.48)"/><polygon class="cls-7" points="443.93 377.44 439.13 247.94 439.57 247.92 444.37 377.42 443.93 377.44"/><rect class="cls-7" x="444.16" y="239.08" width="0.44" height="138.43" transform="translate(-14.74 22.42) rotate(-2.84)"/><polygon class="cls-7" points="439.59 377.43 435.76 258.33 422.71 253.52 398.43 256.88 398.37 256.44 422.76 253.07 422.81 253.09 436.19 258.02 436.2 258.16 440.03 377.42 439.59 377.43"/><polygon class="cls-7" points="397.83 269.1 397.81 268.66 433.44 266.95 433.46 267.39 397.83 269.1"/><rect class="cls-7" x="415.65" y="262.79" width="0.44" height="35.8" transform="translate(132.5 694.74) rotate(-89.63)"/><polygon class="cls-7" points="434.04 292.94 398.19 292.58 398.19 292.14 434.04 292.5 434.04 292.94"/><polygon class="cls-7" points="434.62 304.57 398.77 304.21 398.77 303.77 434.62 304.13 434.62 304.57"/><polygon class="cls-7" points="434.62 316.46 398.77 316.11 398.77 315.67 434.62 316.02 434.62 316.46"/><polygon class="cls-7" points="434.62 329.06 398.77 328.7 398.77 328.26 434.62 328.62 434.62 329.06"/><polygon class="cls-7" points="435.08 339.41 399.23 339.06 399.24 338.62 435.08 338.97 435.08 339.41"/><polygon class="cls-7" points="435.48 351.74 399.64 351.38 399.64 350.94 435.49 351.3 435.48 351.74"/><polygon class="cls-7" points="435.48 364.32 399.64 363.97 399.64 363.53 435.49 363.88 435.48 364.32"/><polygon class="cls-7" points="439.29 248.14 411.83 239.4 397.38 243.67 397.25 243.25 411.83 238.94 439.42 247.72 439.29 248.14"/><rect class="cls-7" x="421.22" y="211.88" width="0.44" height="41.24" transform="translate(65.23 556.2) rotate(-71.15)"/></g><polygon class="cls-59" points="344.27 144.67 353.94 142.6 356.87 353.11 368.15 352.04 368.77 328.48 379.35 328.66 379.35 303.87 390 303.12 395.51 303.56 397.97 295.57 399.7 362.07 413.87 363.69 414.58 372 435.85 372 435.98 377.43 338.61 377.43 344.27 144.67"/><polygon class="cls-60" points="400.01 377.43 398.4 305.87 434.04 307.67 435.8 376.97 400.01 377.43"/><polygon class="cls-61" points="338.91 377 340.12 324.36 390 322.16 390.43 377.43 338.91 377"/><polygon class="cls-62" points="380.24 212.77 389.75 212.28 413.14 217.33 413.39 224.72 396.84 219.75 397.02 229.08 388.32 227.07 380.64 227.57 380.24 212.77"/><polygon class="cls-63" points="400.01 377.43 396.84 219.75 415.64 225.4 398.19 220.68 411.27 377.43 400.01 377.43"/><polygon class="cls-64" points="246.13 376.92 261.06 134.53 329.9 105.4 334.41 106.51 323.7 376.92 246.13 376.92"/><polygon class="cls-65" points="323.7 376.92 329.9 376.92 334.41 106.51 329.9 105.4 323.7 376.92"/><g class="cls-6"><rect class="cls-7" x="154.75" y="239.87" width="216.63" height="0.44" transform="translate(11.49 492.19) rotate(-87.45)"/><rect class="cls-7" x="161.18" y="238.35" width="219.65" height="0.44" transform="translate(20.6 498.68) rotate(-87.45)"/><rect class="cls-7" x="167.09" y="236.3" width="223.76" height="0.44" transform="translate(30.26 504.68) rotate(-87.45)"/><rect class="cls-7" x="173.35" y="234.6" width="227.16" height="0.44" transform="translate(39.55 511) rotate(-87.45)"/><rect class="cls-7" x="179.6" y="232.9" width="230.57" height="0.44" transform="translate(48.85 517.33) rotate(-87.45)"/><rect class="cls-7" x="185.85" y="231.21" width="233.97" height="0.44" transform="translate(58.14 523.65) rotate(-87.45)"/><rect class="cls-7" x="194.26" y="228.88" width="238.65" height="0.44" transform="translate(69.51 531.17) rotate(-87.21)"/></g><polygon class="cls-66" points="308.87 377.43 316.82 138.91 318.81 138.91 311.14 377.43 308.87 377.43"/><polygon class="cls-67" points="316.82 138.91 253.61 162.78 241.29 376.92 308.87 377.43 316.82 138.91"/><g class="cls-6"><rect class="cls-7" x="144.93" y="269.01" width="216.63" height="0.44" transform="translate(-26.94 510.29) rotate(-87.46)"/><rect class="cls-7" x="151.36" y="267.5" width="219.65" height="0.44" transform="translate(-17.84 516.78) rotate(-87.46)"/><rect class="cls-7" x="157.79" y="265.98" width="222.68" height="0.44" transform="translate(-8.74 523.27) rotate(-87.46)"/><rect class="cls-7" x="164.22" y="264.47" width="225.71" height="0.44" transform="translate(0.36 529.76) rotate(-87.46)"/><rect class="cls-7" x="170.65" y="262.96" width="228.74" height="0.44" transform="translate(9.47 536.25) rotate(-87.46)"/><rect class="cls-7" x="177.08" y="261.45" width="231.77" height="0.44" transform="translate(18.57 542.74) rotate(-87.46)"/><rect class="cls-7" x="185.59" y="259.37" width="235.92" height="0.44" transform="translate(30.76 551.34) rotate(-87.46)"/></g><polygon class="cls-68" points="250.27 220.89 314.77 200.63 314.77 201.64 250.24 221.33 250.27 220.89"/><polygon class="cls-69" points="245.6 301.73 311.66 293.72 311.63 294.76 245.6 302.02 245.6 301.73"/><polygon class="cls-70" points="245.6 301.73 275.53 298.1 278.63 228.44 314.19 217.86 316.82 138.91 253.61 162.78 245.6 301.73"/><polygon class="cls-71" points="288.5 358.4 291.33 296.99 301.88 295.83 298.99 358.4 288.5 358.4"/><polygon class="cls-72" points="542.92 377.43 540.12 154.62 508.48 141.45 508.22 377.43 542.92 377.43"/><polygon class="cls-73" points="452.08 377.43 511.44 377.43 508.48 141.45 500.83 143.31 500.81 145.81 466.61 155.22 457.45 154.09 450.91 155.66 452.08 377.43"/><polygon class="cls-74" points="459.8 377.42 504.14 377.42 500.81 145.81 466.61 155.22 457.45 154.09 459.8 377.42"/><polygon class="cls-75" points="497.67 143.53 494.23 142.04 496.28 377.42 500.38 377.42 497.67 143.53"/><polygon class="cls-76" points="494.23 142.04 460.83 152.61 462.27 377.42 496.28 377.42 494.23 142.04"/><polygon class="cls-77" points="517.61 377.43 540.97 186.86 544.8 185.47 522.1 377.43 517.61 377.43"/><polygon class="cls-78" points="544.8 185.47 547.03 377.43 522.1 377.43 544.8 185.47"/><g class="cls-6"><rect class="cls-7" x="465.32" y="151.42" width="0.44" height="226" transform="translate(-2.27 4.04) rotate(-0.5)"/><rect class="cls-7" x="470.66" y="149.93" width="0.44" height="227.5" transform="translate(-3.72 6.75) rotate(-0.82)"/><rect class="cls-7" x="477.61" y="147.66" width="0.44" height="229.76" transform="translate(-3.14 5.8) rotate(-0.69)"/><rect class="cls-7" x="483.86" y="145.8" width="0.44" height="231.63" transform="translate(-3.93 7.41) rotate(-0.87)"/><rect class="cls-7" x="490" y="143.31" width="0.44" height="233.61"/></g><polygon class="cls-79" points="460.05 211.05 460.05 212.1 494.23 205.51 498.4 205.89 498.38 204.93 494.23 204.16 460.05 211.05"/><polygon class="cls-80" points="460.44 251.55 460.44 252.61 494.23 247.7 498.87 248.12 498.87 247.21 494.23 246.35 460.44 251.55"/><polygon class="cls-81" points="460.66 296.3 460.66 297.35 495.23 293.93 499.4 294.31 499.39 293.35 495.23 292.58 460.66 296.3"/><polygon class="cls-82" points="461.17 205.82 490.22 199.59 490.22 204.97 461.2 210.81 461.17 205.82"/><polygon class="cls-83" points="498.87 243.02 495.1 241.69 470.62 245.74 470.62 249.99 495.14 246.52 498.87 247.21 498.87 243.02"/><polygon class="cls-84" points="461.61 273.66 495.33 268.9 495.33 275.16 461.64 279.58 461.61 273.66"/><polygon class="cls-85" points="496.28 332.16 462 334.16 462.04 340.31 495.94 338.57 499.86 338.87 499.86 332.16 496.28 332.16"/><polygon class="cls-86" points="462.07 345.06 478.55 343.56 478.47 304 495.62 301.63 499.4 301.63 500.38 377.42 462.27 377.42 462.07 345.06"/><polygon class="cls-87" points="534.56 377.43 534.56 315.89 537.56 315.6 538.23 305.44 541.99 303.12 541.99 262.54 545.67 260.12 547.03 377.43 534.56 377.43"/><polygon class="cls-88" points="547.03 377.43 545.92 282.04 511.44 274.24 511.44 377.43 547.03 377.43"/><polygon class="cls-89" points="450.91 155.66 451.54 239.04 509.55 227.11 508.48 141.45 500.83 143.31 500.81 145.81 497.71 146.71 497.67 143.53 494.23 142.04 460.83 152.61 460.83 154.51 457.45 154.09 450.91 155.66"/><polygon class="cls-90" points="294.88 298.59 319.24 295.83 319.24 376.92 294.88 376.92 294.88 298.59"/><polygon class="cls-91" points="126.95 377.12 136.09 231.73 150.41 227.13 141.92 377.47 126.95 377.12"/><polygon class="cls-92" points="150.41 227.13 167.8 231.73 162.09 377.47 140.64 377.47 150.41 227.13"/><polygon class="cls-93" points="152.03 377.47 162.22 226.11 178.7 221.33 168.93 377.47 152.03 377.47"/><polygon class="cls-94" points="178.7 221.33 212.07 227.23 207.49 377.47 168.93 377.47 178.7 221.33"/><polygon class="cls-95" points="144.85 377.47 154.66 232.27 161.97 229.78 153.61 377.47 144.85 377.47"/><polygon class="cls-96" points="181.9 377.47 185.29 312.65 232.35 307.61 228.61 377.47 181.9 377.47"/><polygon class="cls-97" points="221.6 377.47 226.09 293.09 244.04 289.18 239.96 377.51 221.6 377.47"/><polygon class="cls-98" points="244.04 289.18 256.08 290.93 253.06 377.31 239.96 377.51 244.04 289.18"/><polygon class="cls-99" points="244.24 377.31 249.21 292.6 258.42 290.25 256.51 377.53 244.24 377.31"/><polygon class="cls-100" points="254.98 377.75 257.78 287.46 279.39 283.86 275.05 377.75 254.98 377.75"/><polygon class="cls-101" points="279.39 283.86 298.88 287.46 296.88 377.75 275.05 377.75 279.39 283.86"/><polygon class="cls-102" points="150.81 289.18 158.91 283.86 156.02 334.93 147.28 341.46 150.81 289.18"/><polygon class="cls-103" points="248.24 309.92 256.85 305.53 256.08 333.35 246.88 337.98 248.24 309.92"/><polygon class="cls-104" points="246.01 347.1 256.09 341.91 255.88 348.45 245.8 353.36 246.01 347.1"/><polygon class="cls-105" points="147.86 266.33 152.34 266.59 149.2 313.03 144.72 314.68 147.86 266.33"/><polygon class="cls-105" points="241.97 333.99 246.88 333.35 244.9 369.4 240.28 370.37 241.97 333.99"/><rect class="cls-106" x="85.93" y="300.62" width="152.46" height="0.44" transform="translate(-148.19 443.96) rotate(-86.43)"/><polygon class="cls-107" points="162.31 377.48 161.87 377.46 170.55 223.62 170.99 223.64 162.31 377.48"/><polygon class="cls-108" points="166.65 377.44 166.21 377.42 174.01 222.62 174.45 222.64 166.65 377.44"/><polygon class="cls-109" points="130.23 377.2 129.79 377.18 138.46 230.44 138.9 230.46 130.23 377.2"/><rect class="cls-110" x="64.44" y="303.27" width="147.61" height="0.44" transform="translate(-172.19 425.33) rotate(-86.94)"/><rect class="cls-111" x="67.42" y="303.04" width="149.11" height="0.44" transform="translate(-167.29 431.66) rotate(-87.46)"/><g class="cls-112"><polygon class="cls-113" points="186.02 377.44 185.58 377.42 188.92 312.22 189.36 312.25 186.02 377.44"/><polygon class="cls-114" points="190.97 377.44 190.53 377.42 193.91 311.51 194.35 311.53 190.97 377.44"/><polygon class="cls-115" points="195.99 377.44 195.55 377.42 198.94 311.15 199.38 311.17 195.99 377.44"/><polygon class="cls-116" points="201.18 377.44 200.74 377.42 204.17 310.5 204.61 310.52 201.18 377.44"/><rect class="cls-117" x="174.27" y="343.55" width="67.62" height="0.44" transform="translate(-146.27 533.28) rotate(-86.95)"/><polygon class="cls-118" points="212.29 377.55 211.85 377.52 215.34 309.58 215.78 309.6 212.29 377.55"/><polygon class="cls-119" points="218.32 377.55 217.89 377.52 221.41 308.75 221.85 308.77 218.32 377.55"/></g><polygon class="cls-120" points="225.35 377.38 224.91 377.36 230.02 292.17 230.46 292.2 225.35 377.38"/><rect class="cls-121" x="189.16" y="334.15" width="86.23" height="0.44" transform="translate(-113.98 548.54) rotate(-86.95)"/><polygon class="cls-122" points="235.02 377.3 234.58 377.28 239.45 290.24 239.88 290.27 235.02 377.3"/><rect class="cls-123" x="216.35" y="331.86" width="91.43" height="0.44" transform="translate(-81.31 579.17) rotate(-87.46)"/><rect class="cls-124" x="221.3" y="331.47" width="92.58" height="0.44" transform="translate(-76.78 582.74) rotate(-87.2)"/><polygon class="cls-125" points="271.13 377.82 270.69 377.8 274.54 284.62 274.98 284.64 271.13 377.82"/><polygon class="cls-126" points="185.29 312.65 197.47 311.34 199.16 377.29 181.9 377.47 185.29 312.65"/><polygon class="cls-127" points="126.95 377.12 129.41 337.98 297.94 336.38 296.88 377.75 126.95 377.12"/><polygon class="cls-128" points="540.25 271.25 607.32 263.01 638.67 268.63 642.12 377.03 537.32 377.45 540.25 271.25"/><polygon class="cls-129" points="608 377.17 607.32 263.01 638.67 268.63 642.12 377.03 608 377.17"/><polygon class="cls-130" points="537.32 377.45 540 277.29 607.39 271.4 608 377.17 537.32 377.45"/><polygon class="cls-131" points="607.39 271.4 638.95 274.07 642.12 377.03 608 377.17 607.39 271.4"/><g class="cls-6"><rect class="cls-7" x="495.49" y="326.88" width="100.72" height="0.39" transform="translate(210.49 867.87) rotate(-89.13)"/><rect class="cls-7" x="553.48" y="276.29" width="0.39" height="100.74"/><rect class="cls-7" x="560.65" y="275.47" width="0.39" height="101.55"/><polygon class="cls-7" points="568.41 377.03 568.02 377.02 568.75 274.76 569.14 274.76 568.41 377.03"/><rect class="cls-7" x="576.74" y="274.07" width="0.39" height="103.4"/><rect class="cls-7" x="585.23" y="273.32" width="0.39" height="103.84"/><rect class="cls-7" x="595.34" y="272.44" width="0.39" height="104.59"/><polygon class="cls-7" points="615.04 377.03 614.31 272.44 614.7 272.44 615.43 377.02 615.04 377.03"/><rect class="cls-7" x="621.56" y="272.95" width="0.39" height="104.09" transform="translate(-5.07 9.88) rotate(-0.91)"/><rect class="cls-7" x="628.33" y="272.95" width="0.39" height="104.09" transform="translate(-5.07 9.99) rotate(-0.91)"/><rect class="cls-7" x="634.53" y="273.72" width="0.39" height="104.09" transform="translate(-5.08 10.09) rotate(-0.91)"/></g><polygon class="cls-132" points="535.22 349.41 607.58 347.06 641.23 348.18 641.44 355.72 608 355.14 535.03 356.6 535.22 349.41"/><polygon class="cls-133" points="608.4 347.09 608.62 355.15 642.12 355.72 642.12 348.2 608.4 347.09"/><polygon class="cls-134" points="535.03 356.6 537.88 357.26 608 356.11 641.48 356.11 642.12 355.72 608 355.14 535.03 356.6"/><polygon class="cls-135" points="537.23 314.94 539.28 315.91 607.69 313.56 640.21 314.24 641.44 313.11 608 312.03 537.23 314.94"/><polygon class="cls-136" points="537.4 308.53 608.41 303.9 639.94 306.28 640.15 313.11 608 312.03 537.23 314.94 537.4 308.53"/><polygon class="cls-137" points="608 303.87 608 312.03 641.44 313.11 641.44 306.39 608 303.87"/><polygon class="cls-138" points="608 356.11 608.62 355.15 642.12 355.72 641.49 356.6 608 356.11"/><polygon class="cls-138" points="607.32 313.57 608 312.03 641.44 313.11 640.21 314.24 607.32 313.57"/><polygon class="cls-139" points="537.32 377.45 538.6 329.7 640.15 327.07 642.12 377.03 537.32 377.45"/><polygon class="cls-140" points="405.34 311.17 429.8 310.54 431.63 377.03 403.44 377.43 405.34 311.17"/><polygon class="cls-141" points="353.08 377.43 356.46 296.07 389.43 293.94 389.62 377.52 353.08 377.43"/><polygon class="cls-142" points="389.43 293.94 408.77 296.53 410.05 377.4 389.62 377.52 389.43 293.94"/><polygon class="cls-143" points="355.99 305.06 389.09 303.36 408.77 305.06 409.03 310.62 389.09 308.93 355.79 309.89 355.99 305.06"/><polygon class="cls-144" points="355.34 320.36 389.43 319.41 409.03 320.4 409.24 325.96 389.62 324.89 355.14 325.19 355.34 320.36"/><polygon class="cls-145" points="354.88 334.12 389.52 333.21 409.24 334.21 409.24 339.76 389.53 338.68 354.68 338.95 354.88 334.12"/><polygon class="cls-146" points="354.26 348.95 389.43 348.03 409.6 349.1 409.6 354.65 389.57 353.56 354.06 353.79 354.26 348.95"/><polygon class="cls-147" points="353.61 364.72 388.88 363.79 409.85 364.36 409.85 369.78 389.02 369.32 353.41 369.55 353.61 364.72"/><polygon class="cls-148" points="389.57 303.36 389.57 308.97 409.03 310.62 408.77 305.06 389.57 303.36"/><polygon class="cls-149" points="389.43 319.41 389.62 324.89 409.24 325.96 409.03 320.4 389.43 319.41"/><polygon class="cls-150" points="389.52 333.21 389.53 338.68 409.45 339.76 409.37 334.31 389.52 333.21"/><polygon class="cls-151" points="389.43 348.03 389.57 353.56 409.6 354.65 409.6 349.1 389.43 348.03"/><polygon class="cls-152" points="389.43 363.79 389.52 369.33 409.85 369.78 409.85 364.36 389.43 363.79"/><rect class="cls-153" x="65.08" y="376.92" width="701.05" height="2.92"/><path class="cls-154" d="M283,83.62l4.3,4.78a24.11,24.11,0,0,1,6.21,16.16v13.28H294V106.26a24.15,24.15,0,0,1,8.27-18.19l5.09-4.45Z"/><circle class="cls-155" cx="295.19" cy="70.4" r="17.96" transform="translate(178.16 350.39) rotate(-80.73)"/><path class="cls-156" d="M305.81,70.07a14.3,14.3,0,0,0-21.25,0L283,68.69a16.36,16.36,0,0,1,24.31,0Z"/><path class="cls-156" d="M303.74,72.16l-1.39,1.35-.05,0-.05,0a9.31,9.31,0,0,0-14.15,0l-.11-.11-1.38-1.33a11.38,11.38,0,0,1,17.13,0Z"/><path class="cls-156" d="M300.45,75.34,299,76.77a4.75,4.75,0,0,0-7.58,0l-1.47-1.42a6.75,6.75,0,0,1,10.54,0Z"/><path class="cls-157" d="M644.62,105.56l4.3,4.77a24.16,24.16,0,0,1,6.21,16.17v13.28h.43V128.2a24.17,24.17,0,0,1,8.27-18.2l5.09-4.44Z"/><circle class="cls-158" cx="656.77" cy="92.33" r="17.96"/><path class="cls-156" d="M663,85.83h-12.5A2.17,2.17,0,0,0,648.35,88v8.68a2.17,2.17,0,0,0,2.17,2.17H663a2.17,2.17,0,0,0,2.17-2.17V88A2.17,2.17,0,0,0,663,85.83Zm-3,7.62h-2.14v2.14h-2.23V93.45h-2.13V91.22h2.13V89.08h2.23v2.14H660Z"/><path class="cls-156" d="M661.62,86.69h-9.81V85.47a2.3,2.3,0,0,1,2.3-2.3h5.2a2.31,2.31,0,0,1,2.31,2.3Zm-8.83-1h7.85v-.24a1.33,1.33,0,0,0-1.33-1.32h-5.2a1.32,1.32,0,0,0-1.32,1.32Z"/><path class="cls-159" d="M605.43,225.39l4.3,4.77a24.16,24.16,0,0,1,6.21,16.17v13.28h.43V248a24.17,24.17,0,0,1,8.27-18.2l5.09-4.44Z"/><circle class="cls-160" cx="617.58" cy="212.16" r="17.96"/><path class="cls-156" d="M622.64,214.66H611.15a.5.5,0,0,1-.45-.3l-3-7a.5.5,0,0,1,0-.46.49.49,0,0,1,.41-.22h14.92a.49.49,0,1,1,0,1H608.93l2.55,6h10.78l2.66-9.86a.45.45,0,0,1,.24-.3l1.21-.65a.48.48,0,0,1,.66.19.49.49,0,0,1-.2.67l-1,.55-2.7,10A.49.49,0,0,1,622.64,214.66Z"/><path class="cls-156" d="M614.24,213.17a.48.48,0,0,1-.47-.35l-1.26-4.23a.5.5,0,0,1,.33-.61.49.49,0,0,1,.61.33l1.26,4.23a.48.48,0,0,1-.33.61A.36.36,0,0,1,614.24,213.17Z"/><path class="cls-156" d="M618.93,213.17h-.07a.49.49,0,0,1-.41-.56l.6-4.23a.49.49,0,0,1,1,.14l-.6,4.23A.49.49,0,0,1,618.93,213.17Z"/><circle class="cls-156" cx="613.61" cy="220.51" r="1.74"/><path class="cls-156" d="M621.92,220.51a1.74,1.74,0,1,1-1.74-1.74A1.74,1.74,0,0,1,621.92,220.51Z"/><path class="cls-156" d="M621.47,219h-9.6a.49.49,0,0,1,0-1h9.22l1.2-4.45a.49.49,0,0,1,.6-.35.5.5,0,0,1,.35.61l-1.3,4.8A.49.49,0,0,1,621.47,219Z"/><path class="cls-161" d="M362.74,255.14l4.3,4.78a24.11,24.11,0,0,1,6.21,16.16v13.28h.44V277.78A24.14,24.14,0,0,1,382,259.59l5.1-4.45Z"/><circle class="cls-162" cx="374.89" cy="241.92" r="17.96"/><path class="cls-156" d="M374.89,251.77a10.17,10.17,0,1,1,10.17-10.17A10.18,10.18,0,0,1,374.89,251.77Zm0-19.35a9.19,9.19,0,1,0,9.19,9.18A9.19,9.19,0,0,0,374.89,232.42Z"/><path class="cls-156" d="M369.47,236.6a13.23,13.23,0,0,1,3.58-.92c1.3,0,.79.27,1.39.46s1.63-.41,3.95-.78a8.88,8.88,0,0,1,4.16.33l1.33,2.31a7.72,7.72,0,0,0-2.24.8,6.81,6.81,0,0,1-2.55,1c-.75.12-2.19.83-2.79.87s-.14-.94-.28-1.17-1.23-.19-1.13.14.48,1.53,1.22,1.92,1.4.58,1.35,1.84-1.67,3.81-2.28,5.48a3.5,3.5,0,0,0-.29,2.36l-1-.16a8.12,8.12,0,0,1-3.53-3.78c-.75-2-1.3-3.16-1.21-3.9s1.77-.8,2.42-1.4,1.58-.46,1.81-.74.37-.83.14-1-1.54.61-2.24.38-2.55-1.13-2.55-1.45-.23-.66,0-1.07S369.47,236.6,369.47,236.6Z"/><path class="cls-156" d="M379.27,247c0-1.19.05-1.37.51-1.58s1.35-1.21,2.37-1.22a3.34,3.34,0,0,1,1.73.45s-.66,2.84-2,3.44S379.27,247,379.27,247Z"/><path class="cls-156" d="M367.75,235.54a6.81,6.81,0,0,0,2.65-1c1.16-.79,1.3-1.26,2.23-1.44s2-.39,2.26-.79C374.89,232.34,370,232,367.75,235.54Z"/><path class="cls-153" d="M159.06,89.24l-.38-.31c.14-.18,14.25-17.75,39.62-34.91,23.42-15.85,61.48-34.59,109.93-33.84s79.46,17.17,97,30.82c19,14.8,26.58,29.63,26.66,29.78l-.44.22c-.08-.15-7.65-14.9-26.55-29.63-17.43-13.6-48.35-30-96.64-30.7S222,38.61,198.59,54.41C173.27,71.54,159.2,89.06,159.06,89.24Z"/><path class="cls-153" d="M619.93,190.25c0-.36-.94-35.8-20.5-73C581.38,83,543.33,40.19,464.54,31c-94.37-11.07-170.36,7.38-217.49,24.81C196,74.64,166.86,96.4,166.58,96.62l-.3-.39c.29-.22,29.47-22,80.6-40.92a454.42,454.42,0,0,1,94-23.61,483,483,0,0,1,123.74-1.23c34.89,4.09,64.79,15,88.88,32.53a155.56,155.56,0,0,1,46.4,54.08c19.61,37.26,20.55,72.8,20.55,73.16Z"/><path class="cls-163" d="M145.27,116.63l4.3,4.77a24.11,24.11,0,0,1,6.21,16.16V209.7h.43V139.26a24.17,24.17,0,0,1,8.27-18.19l5.09-4.44Z"/><circle class="cls-164" cx="157.42" cy="103.4" r="17.96" transform="translate(-27.75 68.96) rotate(-22.76)"/><path class="cls-165" d="M159.35,96.7a6.06,6.06,0,0,0-5.1,0c-7.66,3.62,2.55,16.09,2.55,16.09S167,100.32,159.35,96.7Zm-2.55,7.14a2.07,2.07,0,1,1,2.07-2.08A2.08,2.08,0,0,1,156.8,103.84Z"/><path class="cls-166" d="M419.48,107.07l4.3,4.78A24.16,24.16,0,0,1,430,128v72.14h.43V129.71a24.13,24.13,0,0,1,8.27-18.19l5.09-4.45Z"/><circle class="cls-167" cx="431.63" cy="93.85" r="17.96"/><path class="cls-165" d="M436.09,87.53h-9.92a1.92,1.92,0,0,0-1.92,1.92V96.2a1.93,1.93,0,0,0,1.92,1.93h9l2.87,2V89.45A1.92,1.92,0,0,0,436.09,87.53Zm-7.87,6.19a.87.87,0,1,1,.87-.87A.87.87,0,0,1,428.22,93.72Zm3.19,0a.87.87,0,1,1,.87-.87A.88.88,0,0,1,431.41,93.72Zm3.19,0a.87.87,0,1,1,0-1.74.87.87,0,1,1,0,1.74Z"/></g></g></svg>