<svg id="Layer_1" data-name="Layer 1" xmlns="http://www.w3.org/2000/svg" viewBox="0 0 160.7 50.8"><defs><style>.cls-1{fill:#072c49;}.cls-2{fill:#fff;}</style></defs><rect class="cls-1" width="160.7" height="50.8"/><path class="cls-2" d="M88.27,233c0-.87,0-1.67,0-2.41a1,1,0,0,1,.8-1l3.81-1.17L92.8,227q-3.93.14-7.61.13T77.57,227l.06,1.36,3.81,1.23a1.08,1.08,0,0,1,.74,1.08c0,.69,0,1.47,0,2.33s0,1.84,0,2.91v25.62c0,1.26,0,2.41,0,3.46s0,2,0,2.82a1,1,0,0,1-.83,1L77.57,270l.12,1.36q3.9-.09,7.62-.09c2.44,0,5,0,7.62.09L92.86,270l-3.47-1.1c-.69-.19-1-.55-1.07-1.08,0-.84,0-1.78,0-2.81s0-2.18,0-3.44V235.81C88.26,234.78,88.26,233.83,88.27,233Z" transform="translate(-74.3 -223.96)"/><path class="cls-2" d="M119.49,227.16h-8.2q-6.92,0-14.46-.13l-.22.25.8,11.31,1.23-.22,2.73-8.4h10.84v31.52q0,3.74-.06,6.13a1,1,0,0,1-.8,1L106.81,270l.12,1.36q4.57-.09,8.35-.09c2.44,0,5.24,0,8.42.09l-.07-1.36-4.54-1.39a1,1,0,0,1-.8-1q-.06-2.4-.06-6.13V230h10.84l2,8.62,1.23-.22,1.94-11.09L134,227C128.92,227.12,124.07,227.16,119.49,227.16Z" transform="translate(-74.3 -223.96)"/><path class="cls-2" d="M161.85,251.13a19,19,0,0,0-3.61-2.48q-2-1.05-4.11-2-1.94-.89-3.75-1.8a17.5,17.5,0,0,1-3.24-2.09,9.15,9.15,0,0,1-2.27-2.71,7.48,7.48,0,0,1-.85-3.6,6.94,6.94,0,0,1,2.42-5.63,9.7,9.7,0,0,1,6.46-2,18.36,18.36,0,0,1,5.93,1.11l2,7.86,1.23-.22,1.81-9.85-.21-.23a47.23,47.23,0,0,0-10.17-1.16A20.25,20.25,0,0,0,142,229.43a10.06,10.06,0,0,0-4.65,8.85,11.85,11.85,0,0,0,1,5,10.89,10.89,0,0,0,2.63,3.6,19.46,19.46,0,0,0,3.67,2.58q2,1.11,4.17,2c1.27.59,2.5,1.19,3.69,1.79a19,19,0,0,1,3.18,2,8.51,8.51,0,0,1,2.22,2.64,8.11,8.11,0,0,1-1.73,9.49,11,11,0,0,1-7.14,2.09,17.64,17.64,0,0,1-6.67-1.33l-2.14-9-1.39.22-1.5,10.74.18.25a39.33,39.33,0,0,0,10.81,1.71q7.59,0,12.36-3.32a11,11,0,0,0,4.78-9.6,10.4,10.4,0,0,0-1-4.64A10.65,10.65,0,0,0,161.85,251.13Z" transform="translate(-74.3 -223.96)"/><path class="cls-2" d="M193.91,251.13a19,19,0,0,0-3.61-2.48q-2-1.05-4.11-2-1.94-.89-3.75-1.8a17.5,17.5,0,0,1-3.24-2.09,9.15,9.15,0,0,1-2.27-2.71,7.48,7.48,0,0,1-.85-3.6,6.94,6.94,0,0,1,2.42-5.63,9.7,9.7,0,0,1,6.46-2,18.36,18.36,0,0,1,5.93,1.11l2,7.86,1.23-.22,1.81-9.85-.21-.23a47.23,47.23,0,0,0-10.17-1.16A20.25,20.25,0,0,0,174,229.43a10.06,10.06,0,0,0-4.65,8.85,11.85,11.85,0,0,0,1,5,10.89,10.89,0,0,0,2.63,3.6,19.46,19.46,0,0,0,3.67,2.58q2,1.11,4.17,2c1.27.59,2.5,1.19,3.69,1.79a19,19,0,0,1,3.18,2,8.51,8.51,0,0,1,2.22,2.64,8.11,8.11,0,0,1-1.73,9.49,11,11,0,0,1-7.14,2.09,17.64,17.64,0,0,1-6.67-1.33l-2.14-9-1.39.22-1.5,10.74.18.25a39.33,39.33,0,0,0,10.81,1.71q7.59,0,12.36-3.32a11,11,0,0,0,4.78-9.6,10.4,10.4,0,0,0-1-4.64A10.65,10.65,0,0,0,193.91,251.13Z" transform="translate(-74.3 -223.96)"/><path class="cls-2" d="M231.27,260l-3.93,8.37h-15q-.06-3.41-.06-6.92V235.81c0,.05,0-.64,0-2.05s0-2.48,0-3.22a1,1,0,0,1,.8-1l3.81-1.17-.12-1.36q-3.93.14-7.62.13c-2.44,0-5,0-7.62-.13l.07,1.36,3.8,1.23a1.08,1.08,0,0,1,.74,1.08c0,.69,0,1.47,0,2.33s0,1.84,0,2.91v25.62c0,1.26,0,2.41,0,3.46s0,2,0,2.82a1,1,0,0,1-.83,1L201.63,270l.13,1.36q3.9-.09,7.61-.09h7.71q6.75,0,14.71.09l.18-.22.68-11.31Z" transform="translate(-74.3 -223.96)"/></svg>